<svg xmlns="http://www.w3.org/2000/svg" viewBox="0 0 900 900" width="900" height="900">
	<style>
		tspan { white-space:pre }
		.shp0 { fill: #f9d33c } 
		.shp1 { fill: #010000 } 
		.shp2 { fill: #ec0a0b } 
		.shp3 { fill: #ffffff } 
		.shp4 { fill: #ffe26c } 
	</style>
	<g id="Background">
		<path id="Path 0" class="shp0" d="M418.5 81.66C416.3 81.84 409.32 82.47 403 83.05C396.68 83.64 386.1 85.02 379.5 86.12C372.9 87.21 362.1 89.4 355.5 90.97C348.9 92.54 337.65 95.72 330.5 98.04C323.35 100.37 311.43 104.71 304 107.69C296.57 110.67 284.2 116.37 276.5 120.35C268.8 124.34 256.88 131.18 250 135.55C243.13 139.91 232.78 147.05 227 151.4C221.22 155.75 212.68 162.56 208 166.53C203.32 170.51 192.97 180.45 184.98 188.63C177 196.81 166.16 208.9 160.9 215.5C155.63 222.1 148.18 232.22 144.33 238C140.48 243.78 134.69 253 131.46 258.5C128.24 264 122.37 275.25 118.42 283.5C114.47 291.75 109.19 303.9 106.69 310.5C104.19 317.1 100.3 328.8 98.05 336.5C95.79 344.2 92.65 357.02 91.05 365C89.46 372.98 87.46 385.13 86.61 392C85.77 398.88 84.72 408.22 84.29 412.76L83.5 421.02L28 421L28 647L152.5 647.01C164.88 662.89 176.81 675.88 186.99 686.13C197.34 696.55 211.23 709.28 218.5 715.03C225.65 720.68 237.13 728.99 244 733.49C250.88 737.99 260.55 743.97 265.5 746.78C270.45 749.59 279.68 754.35 286 757.36C292.32 760.38 303.35 765.14 310.5 767.95C317.65 770.75 329.35 774.81 336.5 776.95C343.65 779.1 354.68 781.98 361 783.36C367.32 784.74 378.57 786.78 386 787.9C393.43 789.02 405.57 790.4 413 790.97C420.43 791.53 431.9 791.99 438.5 791.99C445.1 791.99 456.8 791.53 464.5 790.96C472.2 790.39 485.93 788.79 495 787.41C504.07 786.03 517.13 783.53 524 781.87C530.88 780.2 543.7 776.45 552.5 773.52C561.3 770.59 574.13 765.7 581 762.65C587.88 759.6 599.13 754.1 606 750.43C612.88 746.76 623.67 740.46 630 736.44C636.33 732.41 646.9 725.03 653.5 720.02C660.1 715.02 671.1 705.88 677.95 699.71C684.8 693.55 695.52 682.88 701.77 676C708.03 669.13 715.93 659.81 719.32 655.3L725.5 647.1L851 647L851 421L794.5 421.01C792.61 398.14 790.96 384.98 789.61 377C788.26 369.02 785.73 356.88 784 350C782.27 343.13 779.1 332.1 776.97 325.5C774.83 318.9 770.78 307.88 767.97 301C765.15 294.13 759.6 282.2 755.63 274.5C751.65 266.8 745.3 255.55 741.51 249.5C737.72 243.45 731.72 234.45 728.17 229.5C724.63 224.55 717.85 215.78 713.12 210C708.39 204.22 698.66 193.62 691.51 186.44C684.35 179.25 674.45 169.99 669.5 165.85C664.55 161.71 655.33 154.45 649 149.71C642.67 144.98 633 138.31 627.5 134.88C622 131.45 610.75 125.15 602.5 120.88C594.25 116.6 583.23 111.33 578 109.17C572.77 107.01 563.33 103.4 557 101.16C550.67 98.91 540.55 95.72 534.5 94.06C528.45 92.4 518.1 89.94 511.5 88.59C504.9 87.24 494.55 85.43 488.5 84.57C482.45 83.71 471.43 82.56 464 82.01C456.57 81.46 444.2 81.08 436.5 81.17C428.8 81.26 420.7 81.48 418.5 81.66Z" />
		<path id="Path 1" class="shp1" d="M409.5 104.11C404 104.57 392.52 106.12 384 107.55C375.48 108.98 361.75 111.87 353.5 113.97C345.25 116.06 332.2 120.12 324.5 122.99C316.8 125.86 303.75 131.45 295.5 135.41C287.25 139.38 276.45 145.01 271.5 147.93C266.55 150.84 257.55 156.63 251.5 160.78C245.45 164.93 237.13 170.99 233 174.23C228.88 177.48 220.2 184.94 213.73 190.82C207.26 196.69 197.7 206.22 192.5 212C187.3 217.78 179.19 227.45 174.47 233.5C169.76 239.55 162.45 249.9 158.24 256.5C154.03 263.1 146.9 275.7 142.39 284.5C137.88 293.3 131.7 306.8 128.65 314.5C125.61 322.2 121.56 333.68 119.66 340C117.76 346.32 115.05 356.68 113.64 363C112.24 369.32 110.14 380.8 108.99 388.5C107.83 396.2 106.57 410.26 106.19 419.75L105.5 437.01L43 437L43.5 630.5L167.99 631.5C178.46 644.85 185.85 653.63 191.17 659.62C196.5 665.6 206.4 675.54 213.17 681.69C219.95 687.85 229.32 695.89 234 699.55C238.68 703.22 249.25 710.71 257.5 716.2C266.59 722.25 279.99 729.88 291.5 735.57C301.95 740.73 314.32 746.35 319 748.06C323.68 749.77 332.45 752.74 338.5 754.65C344.55 756.56 353.77 759.21 359 760.54C364.23 761.87 375.02 764.06 383 765.41C390.98 766.76 404.02 768.41 412 769.07C421.11 769.83 434.69 770.07 448.5 769.7C460.6 769.38 475.68 768.41 482 767.55C488.32 766.68 497.1 765.27 501.5 764.41C505.9 763.56 515.58 761.34 523 759.49C530.42 757.64 541.9 754.23 548.5 751.92C555.1 749.62 566.13 745.28 573 742.3C579.88 739.31 589.33 734.81 594 732.3C598.67 729.78 606.33 725.46 611 722.69C615.67 719.91 624 714.49 629.5 710.64C635 706.78 643.55 700.39 648.5 696.44C653.45 692.48 661.97 685.03 667.42 679.87C672.88 674.72 681.81 665.55 687.27 659.5C692.73 653.45 700.19 644.56 703.85 639.75L710.5 631L836 631L836 437L773.5 437.01C772.24 414.14 771.2 402.1 770.39 395.5C769.57 388.9 767.81 377.88 766.47 371C765.14 364.13 762.23 352.31 760.02 344.75C757.81 337.19 753.9 325.26 751.33 318.25C748.76 311.24 742.34 296.95 737.06 286.5C731.78 276.05 723.6 261.65 718.89 254.5C714.18 247.35 706.32 236.32 701.42 230C696.51 223.68 685.75 211.72 677.5 203.44C669.25 195.16 658.67 185.21 654 181.32C649.33 177.43 640.33 170.47 634 165.85C627.67 161.24 617.55 154.47 611.5 150.81C605.45 147.16 594.65 141.26 587.5 137.7C580.35 134.14 569.33 129.2 563 126.73C556.67 124.25 547.9 121.02 543.5 119.55C539.1 118.07 528.52 115.12 520 112.98C511.48 110.85 500.45 108.4 495.5 107.55C490.55 106.7 480.2 105.34 472.5 104.52C464.35 103.65 450.35 103.08 439 103.15C428.27 103.22 415 103.65 409.5 104.11Z" />
		<path id="Path 2" class="shp2" d="M413.5 120.03C408 120.52 397.43 121.86 390 123.01C382.57 124.15 371.1 126.38 364.5 127.96C357.9 129.54 348 132.28 342.5 134.04C337 135.8 328 139.01 322.5 141.19C317 143.36 306.2 148.23 298.5 152C290.8 155.77 280 161.66 274.5 165.09C269 168.52 258.65 175.69 251.5 181.02C244.35 186.36 234.22 194.54 229 199.21C223.78 203.87 215 212.38 209.5 218.11C204 223.84 196.75 231.89 193.39 236.01C190.04 240.13 184.21 247.78 180.46 253C176.7 258.23 171.18 266.55 168.18 271.5C165.19 276.45 160.14 285.45 156.96 291.5C153.78 297.55 149.38 306.77 147.18 312C144.97 317.23 141.32 326.9 139.05 333.5C136.77 340.1 133.83 349.55 132.5 354.5C131.17 359.45 129.14 368.23 127.98 374C126.82 379.77 125.22 389.45 124.43 395.5L122.99 406.5C126.49 409.18 128.06 409.97 128.75 409.98C129.44 409.99 131.46 410.61 133.25 411.35C135.04 412.1 138.53 413.29 141 414C143.61 414.76 152.86 415.47 163 415.7C176.93 416.02 181.47 415.79 185.25 414.55C187.86 413.7 190.79 412.99 191.75 412.98C192.71 412.97 195.75 412.21 198.5 411.31C201.25 410.4 204.96 409.06 206.75 408.33C208.54 407.6 210.45 407 211 407C211.55 407 212.79 406.57 213.75 406.05C214.71 405.53 219.32 403.25 224 400.99C228.68 398.73 233.4 396.35 234.49 395.69C235.59 395.04 238.96 392.93 241.99 391.02C245.02 389.1 250.88 384.84 255 381.53C259.13 378.23 264.76 373.27 267.52 370.52C270.28 367.76 274.33 363.25 276.52 360.51C278.71 357.77 281.34 354.62 282.36 353.51C283.38 352.4 286.3 348.43 288.86 344.68C291.41 340.93 293.96 337.1 294.52 336.18C295.08 335.26 296.69 332.7 298.09 330.5C299.5 328.3 300.96 325.82 301.33 325C301.71 324.18 302.9 322.15 303.98 320.5C305.06 318.85 306.62 316.15 307.45 314.5C308.28 312.85 309.42 310.71 309.98 309.75C310.54 308.79 311.42 307.21 311.92 306.25C312.43 305.29 315.5 299.32 318.74 293C321.98 286.68 327.44 276.1 330.86 269.5C334.29 262.9 337.94 256.15 338.98 254.5C340.02 252.85 341.85 249.7 343.05 247.5C344.26 245.3 347.28 240.8 349.78 237.5C352.27 234.2 357.95 227.86 362.4 223.41C366.86 218.96 373.88 212.99 378 210.15C382.13 207.31 386.06 204.99 386.75 204.99C387.44 205 388 204.55 388 204C388 203.45 389.24 202.71 390.75 202.37C392.26 202.02 394.18 201.17 395 200.49C395.82 199.81 399.88 198.5 404 197.58C410.74 196.08 412.16 196.05 418 197.37C422.04 198.28 430.55 201.94 440.5 207.07C449.3 211.6 458.07 216.17 460 217.22C461.93 218.26 464.4 219.66 465.5 220.32C466.6 220.98 470.09 223.2 473.25 225.26C476.41 227.32 480.85 230.69 483.12 232.75C485.38 234.81 488.08 238.3 489.13 240.5C490.17 242.7 491.02 245.96 491.01 247.75C491.01 249.54 490.21 252.42 489.25 254.16C488.29 255.89 486.82 258.03 485.98 258.91C485.15 259.78 483.35 261.22 481.98 262.09C480.62 262.97 476.35 264.66 472.5 265.85C467.32 267.46 462.97 268.02 455.75 268.01C450.39 268.01 443.86 268.45 441.25 269C438.64 269.56 433.13 270.41 429 270.9C424.88 271.38 418.35 272.93 414.5 274.32C410.65 275.72 405.07 278.36 402.1 280.18C399.13 282.01 393.6 286.43 389.82 290C386.04 293.57 381.27 298.98 379.22 302C377.18 305.02 374.97 307.95 374.32 308.5C373.68 309.05 372.21 311.41 371.07 313.75C369.93 316.09 368.55 318 368 318C367.45 318 367 318.45 367 319C367 319.55 365.09 323.17 362.75 327.05C360.41 330.92 358.04 334.86 357.49 335.8C356.93 336.73 354.68 340.65 352.49 344.49C350.29 348.34 348.05 352.25 347.5 353.19C346.95 354.13 345.21 357.28 343.63 360.2C342.05 363.11 339.46 367.3 337.86 369.5C336.27 371.7 334.99 373.73 335.02 374C335.05 374.27 331.79 379.45 327.77 385.5C323.75 391.55 319.34 398.07 317.98 400C316.62 401.93 315.27 403.73 315 404C314.73 404.27 312.7 406.72 310.5 409.42C308.3 412.13 305.82 415.36 305 416.6C304.18 417.84 300.24 422.26 296.25 426.42C291.8 431.07 289.19 434.58 289.5 435.5C289.94 436.83 316.83 437 523.5 437L757 437C756.99 424.99 756.52 416.32 755.95 410C755.37 403.68 754.24 394 753.43 388.5C752.62 383 750.8 373.32 749.38 367C747.96 360.68 745.24 350.32 743.34 344C741.44 337.68 737.4 326.2 734.35 318.5C731.31 310.8 726 299.1 722.56 292.5C719.11 285.9 713.26 275.55 709.55 269.5C705.84 263.45 699.09 253.55 694.54 247.5C689.99 241.45 682.44 232.22 677.77 227C673.1 221.78 664.38 212.76 658.39 206.98C652.4 201.19 642.77 192.68 637 188.07C631.23 183.46 620.42 175.67 613 170.76C605.44 165.75 590.7 157.47 579.5 151.93C564.41 144.46 554.71 140.45 540 135.6C529.27 132.06 513.98 127.8 506 126.13C498.02 124.47 486.32 122.39 480 121.53C473.65 120.66 458.43 119.77 446 119.54C433.63 119.32 419 119.54 413.5 120.03Z" />
		<path id="Path 3" class="shp3" d="M74 531.5L74 585C112.27 585.02 113.78 584.88 117.99 582.76C120.46 581.52 123.5 578.92 124.74 577C126.12 574.86 127.23 571.17 127.6 567.5C127.93 564.2 128.04 555.94 127.85 549.14L127.5 536.78C122.08 532.33 120.72 530.87 121 530.66C121.28 530.44 122.51 529.76 123.75 529.14C125.03 528.49 126.47 526.39 127.1 524.25C127.77 521.95 128.05 514.68 127.8 505.5C127.46 492.46 127.12 489.94 125.2 486.25C123.72 483.39 121.7 481.35 119 480C115.39 478.2 113 478 94.5 478L74 478M133.29 531.2L133.5 584.5L150.5 584.5L151 549L160.5 548.99C165.65 568.76 167.78 576.86 168.57 579.75L170 585C183.18 585 187.2 584.66 187.44 584.25C187.69 583.84 185.89 575.96 183.44 566.75C181 557.54 179 549.33 179 548.5C179 547.67 180.13 546.33 181.5 545.5C182.88 544.67 184.95 541.86 186.11 539.25C188.09 534.78 188.19 533.15 187.86 511.32C187.52 489.55 187.37 487.97 185.38 485.32C184.21 483.77 182.04 481.6 180.56 480.5C178.08 478.66 176.02 478.48 155.47 478.2L133.09 477.89M201.75 480.01C199.42 481.24 197.15 483.61 195.75 486.25C193.55 490.41 193.49 491.32 193.21 528C193.02 551.26 193.31 567.49 193.96 570.75C194.6 573.98 196.06 577.18 197.75 579.07C199.26 580.76 202.3 582.82 204.5 583.64C207.53 584.78 211.78 585.07 222 584.82C233.35 584.55 236.06 584.18 239 582.48C241.08 581.28 243.42 578.64 244.78 575.98C247.05 571.5 247.05 571.47 246.78 529.82C246.51 489.94 246.41 488.03 244.5 485.44C243.4 483.96 241.23 481.79 239.68 480.62C237.13 478.7 235.39 478.48 221.18 478.26C207.16 478.04 205.1 478.23 201.75 480.01ZM253.04 531.46L253 585L270.5 584.5C271.27 539.55 271.83 527.17 272.23 528C272.64 528.83 277.41 541.88 282.84 557L292.72 584.5L309.5 584.5L309.99 478L292 478C292.02 530.65 291.83 534.3 290.61 533C289.83 532.17 284.94 519.58 279.75 505L270.31 478.5L253.08 477.92M313.02 486.48L313 495L330.5 495.5L331 585L348.5 584.5L349 495C365.48 495 366.03 494.86 366.55 492.75C366.86 491.51 366.97 487.8 366.8 484.5L366.5 478.5L313.03 477.97M378.5 479.45C376.85 480.26 374.72 481.73 373.76 482.71C372.8 483.7 371.36 486.3 370.55 488.5C369.37 491.74 369.08 499.7 369.05 530.5C369.03 552.64 369.43 570.06 370.01 572.25C370.55 574.31 372.46 577.61 374.25 579.57C376.24 581.76 379.05 583.54 381.5 584.17C383.7 584.74 391.35 585.04 398.5 584.85C409.31 584.55 412.06 584.16 414.82 582.5C416.64 581.4 419.12 578.92 420.32 577C422.47 573.55 422.5 572.92 422.5 531.5C422.5 491.3 422.41 489.35 420.5 486.1C419.4 484.24 417.23 481.76 415.68 480.6C413.14 478.71 411.33 478.47 397.18 478.24C384.95 478.03 380.84 478.3 378.5 479.45ZM454 531.5L454 585C492.27 585.02 493.78 584.88 497.99 582.76C500.46 581.52 503.5 578.92 504.74 577C506.12 574.86 507.23 571.17 507.6 567.5C507.93 564.2 508.04 555.94 507.85 549.14L507.5 536.78C502.07 532.33 500.73 530.87 501 530.66C501.27 530.44 502.51 529.76 503.75 529.14C505.03 528.49 506.47 526.39 507.1 524.25C507.77 521.95 508.05 514.68 507.8 505.5C507.46 492.46 507.12 489.94 505.2 486.25C503.72 483.39 501.7 481.35 499 480C495.39 478.2 493 478 474.5 478L454 478M513.55 479.32C513.32 480.05 513.22 501.53 513.32 527.07C513.5 572.89 513.53 573.55 515.68 577C516.88 578.92 519.36 581.4 521.18 582.49C523.94 584.15 526.69 584.54 537.5 584.83C546.37 585.06 551.9 584.75 554.9 583.83C557.46 583.06 560.49 581.14 562.15 579.25C563.72 577.46 565.34 574.76 565.75 573.25C566.16 571.74 566.5 549.8 566.5 524.5L566.5 478.5L549.5 478.5C548.73 545.15 548.16 565.06 547.75 565.75C547.26 566.56 544.53 567 540 567C534 567 532.86 566.71 532 565C531.38 563.76 531 546.83 531 520.5L531 478C516.28 478 513.84 478.36 513.55 479.32ZM572.24 531.25L572.5 584.5C589.13 585.11 589.53 585.03 590.24 582.81C590.64 581.54 590.98 573.41 590.99 564.75L591 549L599.5 548.94C604.63 567.97 606.88 575.98 607.81 579L609.5 584.5C621.9 584.91 625.86 584.68 626.29 584.26C626.73 583.84 625 575.4 622.44 565.5L617.78 547.5C622.88 543.63 624.95 541.04 625.68 539.25C626.64 536.88 627 529.84 626.99 513.25C626.97 492.67 626.78 490.1 624.99 486.25C623.51 483.09 621.91 481.49 618.75 480.01C614.93 478.23 612.34 478.03 593.24 478.01L571.98 478M642.04 479.3C640.13 480.02 637.8 481.7 636.85 483.05C635.91 484.4 634.65 486.74 634.07 488.25C633.37 490.04 633.01 505.23 633.02 531.75C633.03 572.06 633.06 572.54 635.27 576.44C636.49 578.61 639.08 581.31 641 582.44C644.15 584.3 646.15 584.5 661.07 584.5C677.47 584.5 677.69 584.47 681.82 581.75C684.78 579.8 686.45 577.76 687.53 574.75C688.76 571.32 689.01 566.26 688.78 548.5L688.5 526.5L662.5 526.5L662.5 543.5L671 544C671.03 560.97 670.61 564.93 669.82 565.75C669.06 566.53 665.75 567.01 661.05 567.02C656.27 567.03 653.04 566.57 652.23 565.77C651.26 564.8 650.96 556.78 650.95 531.5C650.94 501.14 651.08 498.36 652.72 496.78C654.02 495.51 656.24 495.04 661 495.01C664.74 494.98 668.23 495.5 669.22 496.23C670.53 497.2 671 499.3 671.22 505L671.5 512.5L688.5 512.5C689.02 492.72 688.79 490.98 686.78 487.06C685.52 484.62 683.23 481.69 681.68 480.56C679.14 478.7 677.21 478.48 662.18 478.26C650.45 478.08 644.47 478.39 642.04 479.3ZM694.5 478.67C694.04 479.03 693.75 502.55 693.85 530.92C693.95 559.29 694.36 583.06 694.77 583.74C695.33 584.69 701.63 584.93 721.5 584.74L747.5 584.5L747.5 567.5L712 567L712 540L740 540L739.5 522.5L712 522L712.5 495.5L748 495L748 478C707.18 478 694.96 478.3 694.5 478.67ZM753.5 478.67C753.04 479.03 752.75 502.55 752.85 530.92C752.95 559.29 753.36 583.07 753.77 583.76C754.29 584.66 756.97 584.95 763 584.76L771.5 584.5L772 549C780.58 549 781.06 549.26 781.67 551.75C782.04 553.26 784.17 561.25 786.42 569.5L790.5 584.5C807.02 584.97 808 584.8 807.98 583.25C807.98 582.29 805.95 573.96 803.48 564.75L799 548C803.86 543.74 805.99 541.15 806.88 539.5C808.24 536.99 808.5 532.77 808.5 513.5C808.5 492.12 808.35 490.22 806.41 486.5C805.18 484.14 802.72 481.59 800.41 480.27C796.71 478.15 795.38 478.03 775.42 478.02C763.82 478.01 753.96 478.3 753.5 478.67Z" />
		<path id="Path 4" class="shp1" d="M92 508.5L92 522C107 522 108.13 521.75 109 520C109.55 518.9 110 513.73 110 508.5C110 500.33 109.72 498.72 108 497C106.38 495.38 104.67 495 99 495L92 495M151 513L151 531C167 531 168.12 530.76 169 529C169.55 527.9 170 520.48 170 512.5C170 498.58 169.91 497.94 167.75 496.49C166.26 495.49 163.06 494.99 158.25 494.99L151 495M213 495.98C211.72 496.78 211.46 501.93 211.25 530.46C211.01 562.84 211.07 564.07 213 566C214.49 567.49 216.34 568 220.25 568.01C223.28 568.01 226.45 567.38 227.75 566.51L230 565C230 503.06 229.77 497.77 228.5 496.5C227.48 495.48 224.99 495 220.75 495.02C217.31 495.02 213.82 495.46 213 495.98ZM388.5 496.57C387.04 497.97 386.86 501.81 386.93 531.57L387 565C390.5 567.35 393.72 568.02 396.5 568.02C399.26 568.03 402.39 567.39 403.5 566.6C405.42 565.22 405.51 563.87 405.75 532.33C405.97 504.48 405.78 499.16 404.5 497.25C403.2 495.31 402.13 495 396.57 495C392.09 495 389.65 495.48 388.5 496.57ZM472 508.5L472 522C487 522 488.13 521.75 489 520C489.55 518.9 490 513.73 490 508.5C490 500.33 489.72 498.72 488 497C486.38 495.38 484.67 495 479 495L472 495M591 513L591 531C603.72 531 607.05 530.54 607.82 529.75C608.67 528.88 609.03 523.9 609.02 513.25C609 501.04 608.7 497.7 607.5 496.5C606.43 495.43 603.83 495 598.5 495L591 495M772 513L772 531C784.72 531 788.05 530.54 788.82 529.75C789.67 528.87 790.03 523.79 790.02 512.75C790 498.01 789.87 496.94 788 496C786.9 495.45 782.85 495 779 495L772 495M92 553.5L92 567C107 567 108.13 566.75 109 565C109.55 563.9 110 558.84 110.01 553.75C110.01 547.16 109.58 543.85 108.51 542.25C107.17 540.25 106.16 540 99.5 540L92 540M472 553.5L472 567C487 567 488.13 566.75 489 565C489.55 563.9 490 558.84 490.01 553.75C490.01 547.16 489.58 543.85 488.51 542.25C487.17 540.25 486.16 540 479.5 540L472 540" />
		<path id="Path 5" class="shp2" d="M194.13 638.75C197.63 643.01 205.45 651.62 211.5 657.88C217.55 664.14 227.68 673.6 234 678.89C240.32 684.19 249.32 691.28 254 694.64C258.68 698.01 267 703.6 272.5 707.07C278 710.54 288.01 716.21 294.75 719.69C301.49 723.16 307.68 726 308.5 726C309.68 726 310 724.61 310 719.5L310 713L320 705L341 705L341 733C346.05 729.26 347.96 728.94 355.5 728.98L364.5 729.04C365.56 723.2 366.46 715.48 367.18 708.11L368.5 694.72C378.58 687.96 380.21 687.4 383.75 687.67C387.95 688 388 687.96 388 684.75C388 682.96 387.49 676.55 386.86 670.5L385.73 659.5L394.59 645.5C408.47 642.81 413.18 642.02 414 642.01C415.25 642 416.06 648.37 418.83 680.25C420.66 701.29 422.24 718.54 422.33 718.58C422.42 718.63 425.57 718.41 429.33 718.08C433.42 717.74 436.49 717.9 436.97 718.5C437.42 719.05 438.3 726.02 438.93 734C439.56 741.98 440.29 749.51 440.54 750.75C440.8 752.05 441.74 753 442.75 753.01C444.17 753.02 444.64 751.75 445.24 746.26C445.65 742.54 445.99 737.36 445.99 734.75C446 730.61 446.57 729.3 450.5 724.5L455 719L467 719C468.21 705.88 468.78 704.12 470.67 702.5C472.29 701.12 474.27 696.48 477.1 687.5C480.45 676.85 481.85 673.81 484.84 670.66C488.29 667.05 488.8 666.85 493.65 667.16C496.49 667.35 499.1 667.73 499.45 668C499.8 668.27 498.11 675.02 495.69 683L491.31 697.5C498.85 698.8 499.99 699.46 499.98 700.75C499.97 701.71 499.31 707 498.51 712.5C497.72 718 497.05 723.29 497.03 724.25C497 725.75 497.99 726 504 726L511 726L509.74 715.5C519.39 707.12 519.73 707 529.5 706.04C535 705.5 539.58 705.16 539.67 705.28C539.77 705.4 540.44 712.32 541.17 720.65C541.9 728.98 542.73 736.09 543 736.44C543.27 736.79 548 735.45 553.5 733.47C559 731.48 569.8 726.76 577.5 722.97C585.2 719.19 596.45 713.11 602.5 709.46C608.55 705.81 618.23 699.5 624 695.45C629.77 691.39 639.67 683.61 646 678.16C652.33 672.72 661.56 664.04 666.53 658.88C671.5 653.72 678.81 645.67 682.78 641C686.75 636.33 690 632.16 690 631.75C690 631.34 577 631 438.88 631L187.76 631" />
		<path id="Path 6" class="shp4" d="M402.65 643.88L394.8 645.5C395.67 651.7 397.8 675.55 400.09 702.5C402.39 729.45 404.55 751.83 404.88 752.23C405.22 752.63 411.01 753.31 417.76 753.73L430.01 754.5C430.01 749.08 429.53 742.77 428.93 737L427.85 726.5C434.88 720.3 436.75 718.27 436.54 718C436.33 717.73 433.08 717.76 429.33 718.08C425.57 718.41 422.42 718.63 422.33 718.58C422.24 718.54 420.78 701.29 419.1 680.25L416.04 642C411.75 642.19 406.97 642.98 402.65 643.88Z" />
		<path id="Path 7" class="shp0" d="M390.23 652.25L386 659C389.09 695.28 389.08 695.8 386.56 720.5C385.15 734.25 383.99 746.4 383.99 747.5C383.97 749.26 385.12 749.68 393.43 751C398.64 751.83 403.26 752.13 403.7 751.68C404.14 751.24 402.56 728.74 400.2 701.68C397.83 674.63 395.57 650.92 395.17 649L394.46 645.5" />
		<path id="Path 8" class="shp4" d="M488.45 668.15C488.41 668.89 484.84 681.2 480.49 695.5C476.15 709.8 472.46 720.94 472.3 720.25C472.09 719.37 469.47 719 463.5 719L455 719C454.86 727.91 454.52 735.79 454.16 742.25L453.5 754C460.48 753.99 468.35 753.3 475.5 752.47C482.65 751.64 494.47 749.73 501.77 748.23L515.04 745.5L515 726C498.08 726 497 725.79 497.03 724.25C497.05 723.29 497.72 718 498.51 712.5C499.31 707 499.97 701.71 499.98 700.75C499.99 699.46 498.85 698.8 495.65 698.25L491.31 697.5C498.11 675.02 499.8 668.27 499.45 668C499.1 667.73 496.49 667.34 493.65 667.15C489.83 666.89 488.49 667.14 488.45 668.15Z" />
		<path id="Path 9" class="shp0" d="M484.29 671.25C481.92 673.73 480.22 677.62 477.09 687.75C474.11 697.4 472.46 701.27 471 702C469.9 702.55 468.81 703.79 468.57 704.75C468.34 705.71 467.89 709.31 467.57 712.75C467.01 718.9 467.04 719 469.5 719C470.88 719 472.14 719.56 472.3 720.25C472.47 720.94 475.69 711.38 479.46 699C483.23 686.63 486.81 674.59 487.42 672.25C488.04 669.91 488.28 668 487.96 668C487.65 668 485.99 669.46 484.29 671.25Z" />
		<path id="Path 10" class="shp4" d="M374 690.98L368.5 694.73C366.46 715.48 365.56 723.2 365.18 725.27L364.5 729.04C346.57 728.95 346.46 728.98 341.71 732.72C339.07 734.8 336.94 736.84 336.96 737.25C336.98 737.66 340.71 739.12 345.25 740.48C349.79 741.84 354.06 742.97 354.75 742.98C355.44 742.99 356 741.88 356 740.5C356 738.74 357.41 736.81 360.75 734.01L365.5 730.03L366 746C376.07 748.33 380.13 749 381.5 749C383.21 749 384 748.45 384 747.25C384 746.29 385.13 734.48 386.5 721C387.87 707.52 389 694.81 389 692.75C389 690.64 388.45 688.82 387.75 688.59C387.06 688.36 384.93 687.96 383 687.7C380.15 687.31 378.47 687.93 374 690.98ZM315.1 709L310 713L310.5 727.36C324.45 733.23 328.84 734.95 329.25 734.97C329.66 734.99 329.99 730.39 329.98 724.75L329.96 714.5L340.5 705.06L320.2 705" />
		<path id="Path 11" class="shp0" d="M335.2 709.78L329.91 714.5C330.5 735.31 330.51 735.34 333.25 736.17C335.28 736.78 336.65 736.54 338.47 735.25C340.89 733.53 340.94 733.25 340.97 719.25C340.99 711.41 340.89 705.01 340.75 705.03C340.61 705.05 338.12 707.19 335.2 709.78Z" />
		<path id="Path 12" class="shp4" d="M528.34 705.9C524.4 706.23 520.8 706.87 520.34 707.32C519.88 707.77 520.1 715.42 520.84 724.32C521.58 733.22 522.56 741.17 523.02 742C523.74 743.3 524.94 743.17 532.09 741C536.62 739.63 540.89 738.05 541.58 737.5C542.58 736.7 542.56 733.71 541.45 722.5C540.69 714.8 540.05 707.71 540.03 706.75C540.01 705.57 539.27 705.05 537.75 705.15C536.51 705.23 532.28 705.56 528.34 705.9Z" />
		<path id="Path 13" class="shp0" d="M514.54 711.07C511.68 713.55 510 715.83 509.99 717.25C509.98 718.49 510.32 720.97 510.74 722.77C511.24 724.95 512.09 726.04 513.25 726.02C514.8 726 515 727.11 514.98 735.75L514.95 745.5C520.03 744.29 521.76 743.61 522.09 743.22C522.41 742.82 521.87 734.55 520.88 724.82L519.08 707.15M431.95 722.75L427.97 726.5C430.45 753.48 430.59 754.01 432.75 754.01C433.99 754 435.34 753.49 435.75 752.88C436.16 752.26 437.46 751.92 438.63 752.13C440.48 752.45 440.71 752.1 440.38 749.5C440.16 747.85 439.55 741.33 439 735C438.45 728.67 438.01 722.49 438 721.25C438 720.01 437.53 719 436.96 719C436.39 719 434.13 720.69 431.95 722.75ZM450.47 724.53L446.44 729.5C445.28 747.33 444.5 752.61 443.97 752.75C443.44 752.89 443.19 753.34 443.41 753.75C443.64 754.16 446 754.27 448.66 754L453.5 753.5C454.69 731.8 454.91 724.16 454.77 722.53L454.5 719.56M360.49 733.96C356.65 737.24 355.61 738.74 355.77 740.83C355.94 743.14 356.61 743.66 360.73 744.67C363.35 745.31 365.61 745.76 365.75 745.67C365.89 745.58 365.87 741.96 365.71 737.64L365.41 729.77" />
	</g>
</svg>