<svg xmlns="http://www.w3.org/2000/svg" viewBox="0 0 3786 3000" width="3786" height="3000">
	<style>
		tspan { white-space:pre }
		.shp0 { fill: #000000 } 
	</style>
	<path id="Path 0" class="shp0" d="M1106.5 107.91C1104.85 108.94 1102.65 111.52 1101.61 113.64C1100.57 115.76 1099.44 119.53 1099.1 122C1098.75 124.47 1099.03 130.32 1099.71 135C1100.39 139.68 1101.41 147.89 1101.98 153.25C1102.83 161.39 1102.75 163.49 1101.5 166C1100.67 167.65 1098.76 169.94 1097.25 171.09C1094.92 172.86 1093.66 173.07 1089 172.51C1085.97 172.15 1079.45 170.79 1074.5 169.49C1069.55 168.19 1059.88 165.15 1053 162.74C1046.13 160.32 1034.42 156.95 1027 155.24C1019.58 153.53 1011.02 151.67 1008 151.09C1004.98 150.52 998 149.37 992.5 148.54C987 147.71 977.1 146.49 970.5 145.84C963.9 145.19 953.33 144.63 947 144.6C940.67 144.57 929.42 145.34 922 146.31C914.58 147.28 904.23 148.72 899 149.52C893.77 150.32 885.45 151.41 880.5 151.96C875.55 152.5 865.09 152.96 857.25 152.97C845.71 152.99 842 153.37 837.75 154.93C833.99 156.31 831.14 158.36 827.7 162.18C825.06 165.1 822.41 169.07 821.81 171C821.18 173.02 820.96 177.67 821.28 182C821.6 186.13 822.81 192.2 823.98 195.5C825.15 198.8 826.69 204.2 827.42 207.5C828.14 210.8 828.51 214.85 828.24 216.5C827.97 218.15 826.68 220.96 825.37 222.75C824.07 224.54 821.65 226.68 820 227.5C817.95 228.52 813.9 229 807.25 229.01C801.53 229.02 795.64 229.62 793 230.46C790.52 231.26 785.35 233.52 781.5 235.48C777.65 237.45 773.38 239.04 772 239.01C770.63 238.99 766.13 238.12 762 237.08C757.88 236.04 750.9 234.68 746.5 234.07C742.1 233.45 733.1 232.52 726.5 232C719.9 231.48 710.9 230.6 706.5 230.05C702.01 229.48 676.37 229.08 648 229.13C620.23 229.18 594.13 229.62 590 230.11C585.88 230.6 578.9 231.68 574.5 232.51C570.1 233.34 560.65 234.87 553.5 235.92C546.35 236.97 536.23 238.34 531 238.97C525.77 239.61 516.55 240.77 510.5 241.56C504.45 242.36 497.25 243.67 494.5 244.48C491.75 245.3 488.31 246.76 486.85 247.73C485.39 248.7 483.28 250.63 482.16 252C481.05 253.38 479.43 256.75 478.58 259.5C477.72 262.25 477.02 266.64 477.01 269.25C477 271.86 477.68 277.04 478.51 280.75C479.34 284.46 482.08 292.45 484.61 298.5C487.14 304.55 490.21 311.98 491.45 315C492.68 318.02 494.48 324.1 495.45 328.5C496.41 332.9 498.29 340.21 499.6 344.75C500.92 349.29 501.98 354.69 501.96 356.75C501.93 359.87 501.14 361.28 497.21 365.15C493.86 368.47 491.35 370.02 488.5 370.54C486.21 370.97 481.08 370.74 476.5 370.01C471.37 369.19 463.65 368.93 455 369.27C444.95 369.67 437.03 370.73 424 373.44C414.38 375.44 403.57 377.51 400 378.04C396.43 378.57 390.35 379.45 386.5 380C382.65 380.55 370.73 381.65 360 382.45C349.27 383.25 333.75 385.05 325.5 386.46C317.25 387.87 305.77 390.18 300 391.61C294.23 393.03 283.43 396.68 276 399.71C268.57 402.74 260.02 406.48 257 408.01C253.97 409.54 249.93 412.37 248 414.28C246.07 416.2 243.91 419.73 243.18 422.14C242.14 425.6 242.11 427.64 243.04 432C243.69 435.02 245.71 441.32 247.53 446C249.36 450.68 252.06 457.2 253.53 460.5C255 463.8 258.22 471.9 260.68 478.5C263.14 485.1 268.28 496.57 272.09 504C275.91 511.43 279.29 518.85 279.6 520.5C279.94 522.26 279.52 525.05 278.59 527.25C277.72 529.31 272.58 535.61 267.19 541.25C258.2 550.64 256.75 552.72 250.02 566C243.1 579.65 242.05 581.13 232.08 591.35C226.26 597.32 219.7 603.12 217.5 604.24C213.94 606.05 212.34 606.21 203 605.65C197.22 605.3 188.45 604.77 183.5 604.46C176.69 604.04 172.43 604.37 166 605.8C161.32 606.84 150.97 609.59 143 611.91C135.03 614.23 124.45 617.4 119.5 618.96C114.55 620.53 105.78 622.78 100 623.97C94.22 625.16 86.8 627.43 83.5 629.02C80.2 630.61 74.35 633.97 70.5 636.48C66.65 639 57.2 644.23 49.5 648.11C41.8 651.99 33.34 656.81 30.7 658.83C28.06 660.85 25.02 663.96 23.95 665.75C22.88 667.54 22 670.69 22.01 672.75C22.02 674.81 23.06 678.75 24.34 681.5C25.62 684.25 30.62 693.02 35.47 701C40.32 708.98 45.34 718.31 46.64 721.75C47.94 725.19 49 729.35 49 731C49 732.65 48.36 735.24 47.58 736.75C46.8 738.26 44.44 741.13 42.33 743.12C40.22 745.12 35.35 749.02 31.5 751.79C27.65 754.56 23.15 757.38 21.5 758.05C19.8 758.73 14.5 759.2 9.25 759.13L0 759L0 3000C400.72 3000 425 2999.83 425 2998.5C425 2997.68 425.63 2995.76 426.39 2994.25C427.15 2992.74 431 2987.68 434.94 2983C438.88 2978.32 443.21 2972.25 444.55 2969.5C445.9 2966.75 448.16 2960.22 449.59 2955C451.02 2949.78 453.01 2944.15 454.03 2942.5C455.04 2940.85 459.39 2936.1 463.69 2931.94C469.45 2926.36 472.79 2922.04 476.41 2915.44C479.11 2910.52 483.31 2902.68 485.74 2898C488.16 2893.32 491.92 2887.25 494.08 2884.5C496.24 2881.75 500.5 2876.57 503.54 2873C506.59 2869.43 509.95 2864.7 511.02 2862.5C512.09 2860.3 513.87 2854.34 514.98 2849.25C516.09 2844.16 517.75 2838.54 518.66 2836.75C519.58 2834.96 522.45 2830.57 525.05 2827C527.64 2823.43 532.04 2816.68 534.81 2812C537.59 2807.32 542.88 2800.13 546.57 2796C550.26 2791.88 554.57 2786.47 556.15 2784C557.74 2781.53 560.69 2774.55 562.72 2768.5C565.53 2760.11 567.7 2755.72 571.86 2750C574.86 2745.88 578.43 2740.03 579.8 2737C582.18 2731.74 582.26 2730.92 581.65 2718.5C581.29 2711.35 580.64 2699.43 580.19 2692C579.68 2683.61 578.34 2673.96 576.64 2666.5C575.13 2659.9 572.73 2649.55 571.31 2643.5C569.56 2636.08 568.95 2631.36 569.41 2629C569.79 2627.07 571.73 2621.68 573.73 2617C575.73 2612.32 578.42 2606.93 579.71 2605C581 2603.07 584.42 2599.03 587.3 2596C590.18 2592.97 593.96 2588.7 595.71 2586.5C597.45 2584.3 599.79 2580.03 600.91 2577C602.1 2573.76 604.49 2570 606.72 2567.85C608.8 2565.85 612.75 2563.04 615.5 2561.61C618.99 2559.8 625.18 2554.09 636 2542.7C644.52 2533.73 654.42 2524.14 658 2521.39C662.76 2517.74 667.04 2515.55 674 2513.23C679.23 2511.49 685.3 2508.77 687.5 2507.19C689.7 2505.61 697.13 2499.02 704 2492.55C712.19 2484.84 718.57 2479.75 722.5 2477.76C725.8 2476.1 730.3 2473.49 732.5 2471.98C734.7 2470.46 739.42 2465.54 743 2461.04C746.58 2456.54 752.2 2450.82 755.5 2448.32C758.8 2445.82 764.54 2442.25 768.25 2440.39C771.96 2438.52 777.07 2435.09 779.6 2432.75C782.13 2430.41 785.68 2426.03 787.5 2423C789.31 2419.97 793.89 2414.57 797.67 2411C801.46 2407.43 808.57 2402.03 813.47 2399C819.31 2395.4 824.14 2391.46 827.45 2387.59C830.23 2384.34 836.1 2377.86 840.5 2373.2C844.9 2368.53 852.1 2362.05 856.5 2358.8C860.9 2355.55 867.2 2350.3 870.5 2347.13C873.8 2343.96 881.23 2337.76 887 2333.34C892.77 2328.92 902.11 2322.32 907.75 2318.65C913.39 2314.99 921.94 2308.26 926.75 2303.69C931.56 2299.12 936.9 2294.28 938.6 2292.94C940.31 2291.6 945.02 2287.8 949.08 2284.5C953.13 2281.2 959.61 2276.34 963.48 2273.7C967.34 2271.06 973.09 2267.24 976.27 2265.2C979.44 2263.17 986.64 2258.2 992.27 2254.17C997.89 2250.15 1006.1 2245.03 1010.5 2242.8C1014.9 2240.57 1022.1 2237.42 1026.5 2235.8C1030.9 2234.18 1041.03 2231.56 1049 2229.98C1056.97 2228.4 1068.67 2226.19 1075 2225.07C1081.33 2223.95 1091.67 2222.59 1098 2222.05C1104.33 2221.5 1116.47 2220.56 1125 2219.95C1138.54 2218.98 1143.48 2219.11 1164 2220.9C1176.92 2222.04 1196.5 2223.67 1207.5 2224.52C1218.5 2225.38 1237.63 2226.34 1250 2226.65C1262.97 2226.97 1277.16 2226.76 1283.5 2226.15C1289.55 2225.57 1303.28 2223.72 1314 2222.04C1333.41 2219.01 1333.68 2218.99 1374.5 2219C1398.27 2219.01 1418.23 2219.46 1422 2220.06C1425.58 2220.64 1457.75 2229.15 1493.5 2238.98C1529.25 2248.8 1561.88 2258.16 1566 2259.78C1570.13 2261.4 1582.95 2267.01 1594.5 2272.26C1606.05 2277.5 1617.97 2282.92 1621 2284.3C1624.03 2285.69 1644.28 2294.47 1666 2303.83C1687.72 2313.18 1719.67 2326.45 1737 2333.31C1759.84 2342.35 1777.3 2348.45 1800.5 2355.47C1818.1 2360.8 1836.33 2365.77 1841 2366.51C1845.67 2367.25 1852.65 2368.79 1856.5 2369.93C1862.51 2371.71 1866.18 2372 1882.5 2371.99C1893.88 2371.99 1903.1 2371.53 1905.5 2370.83C1907.7 2370.2 1913.55 2369.64 1918.5 2369.59C1924.5 2369.53 1929.67 2370.12 1934 2371.35C1939.64 2372.96 1943.02 2373.14 1959.5 2372.71C1972.05 2372.39 1981.04 2371.65 1986 2370.53C1990.94 2369.41 1995.89 2369 2000.5 2369.33C2004.35 2369.6 2010.42 2370.5 2014 2371.33C2017.58 2372.16 2029.28 2373.8 2040 2374.99C2050.72 2376.17 2062.65 2377.96 2066.5 2378.95C2070.35 2379.95 2082.05 2383.33 2092.5 2386.48C2102.95 2389.62 2116 2393.9 2121.5 2396C2128.49 2398.66 2133.91 2400.01 2139.5 2400.49C2143.9 2400.87 2151.78 2402.2 2157 2403.46C2162.22 2404.72 2185.4 2412.41 2208.5 2420.55C2250 2435.18 2250.87 2435.54 2281.5 2451.04C2298.55 2459.66 2314.3 2467.73 2316.5 2468.98C2318.7 2470.22 2324.78 2472.94 2330 2475.04C2335.22 2477.13 2346.7 2481.3 2355.5 2484.31C2364.3 2487.32 2374.88 2491.13 2379 2492.78C2383.13 2494.43 2394.15 2500.04 2403.5 2505.24C2412.85 2510.43 2425.45 2517.28 2431.5 2520.46C2437.55 2523.63 2448.8 2529.53 2456.5 2533.57C2464.2 2537.6 2472.8 2542.61 2475.6 2544.7C2478.41 2546.79 2485.34 2552.78 2491 2558C2496.67 2563.22 2509.9 2574.41 2520.4 2582.86C2530.91 2591.32 2541.3 2599.47 2543.5 2600.98C2545.7 2602.5 2555.15 2608.16 2564.5 2613.56C2573.85 2618.97 2586.68 2626.38 2593 2630.04C2599.32 2633.7 2606.97 2638.4 2610 2640.48C2613.03 2642.55 2619.55 2646.21 2624.5 2648.6C2629.45 2650.98 2635.75 2654.21 2638.5 2655.77C2641.25 2657.33 2644.85 2659.08 2646.5 2659.65C2648.15 2660.22 2652.88 2662.9 2657 2665.61C2661.13 2668.33 2666.53 2671.71 2669 2673.13C2671.47 2674.56 2677.32 2676.98 2682 2678.52C2686.68 2680.05 2696.13 2683.9 2703 2687.08C2711.69 2691.09 2719.76 2693.9 2729.5 2696.32C2737.2 2698.23 2746.88 2700.11 2751 2700.5C2755.13 2700.89 2759.63 2701.68 2761 2702.26C2762.38 2702.85 2770.7 2703.56 2779.5 2703.85C2788.3 2704.13 2802.25 2704.4 2810.5 2704.43C2818.75 2704.47 2832.03 2704.11 2840 2703.63C2847.97 2703.16 2858.66 2701.92 2863.75 2700.88C2868.84 2699.85 2877.16 2698.13 2882.25 2697.08C2887.34 2696.02 2894.88 2694 2899 2692.58C2903.13 2691.17 2911 2688.71 2916.5 2687.13C2922 2685.54 2932.35 2682.13 2939.5 2679.55C2946.65 2676.98 2954.3 2674.2 2956.5 2673.38C2958.7 2672.55 2963.65 2670.97 2967.5 2669.85C2971.35 2668.73 2979 2665.58 2984.5 2662.84C2990 2660.1 2998.19 2655.3 3002.7 2652.18C3007.21 2649.05 3016.28 2642.45 3022.84 2637.5C3029.41 2632.55 3041.24 2624.38 3049.14 2619.36C3057.04 2614.33 3068.68 2607.64 3075 2604.49C3081.32 2601.35 3089.65 2596.72 3093.5 2594.2C3097.36 2591.67 3106.32 2583.76 3113.5 2576.54C3120.65 2569.34 3128.97 2561.61 3132 2559.37C3135.03 2557.12 3139.55 2553.08 3142.05 2550.39C3144.55 2547.7 3148.57 2542.57 3150.98 2539C3153.39 2535.43 3156.68 2528.68 3158.29 2524C3160.47 2517.65 3161.22 2513.6 3161.25 2508C3161.27 2503.88 3160.52 2496.9 3159.57 2492.5C3158.62 2488.1 3157.06 2482.7 3156.11 2480.5C3155.04 2478.04 3149.19 2471.29 3140.94 2462.99C3132.06 2454.07 3123.45 2446.6 3115.58 2440.99C3109.02 2436.32 3101.67 2430.7 3099.25 2428.5C3096.82 2426.3 3093.65 2422.03 3092.2 2419C3090.09 2414.62 3089.56 2412.08 3089.6 2406.5C3089.63 2401.24 3090.44 2397.26 3092.85 2390.5C3094.61 2385.55 3096.94 2377.56 3098.03 2372.75C3099.11 2367.94 3099.99 2360.96 3099.99 2357.25C3099.98 2353.54 3099.31 2348.03 3098.5 2345C3097.69 2341.97 3096.19 2338.38 3095.17 2337C3094.15 2335.63 3092.57 2333.04 3091.65 2331.25C3090.74 2329.46 3089.99 2326.76 3089.97 2325.25C3089.96 2323.74 3091.16 2319.8 3092.64 2316.5C3094.41 2312.55 3095.32 2308.79 3095.32 2305.5C3095.31 2302.75 3094.73 2299.38 3094.03 2298C3093.33 2296.63 3091.57 2294.22 3090.13 2292.66C3088.68 2291.1 3086.15 2289.12 3084.5 2288.27C3082.85 2287.42 3078.13 2285.66 3074 2284.36C3069.88 2283.06 3065.71 2282 3064.75 2282C3063.79 2282 3060.19 2282.94 3056.75 2284.08C3053.31 2285.22 3046.9 2286.79 3042.5 2287.56C3038.1 2288.33 3032.7 2288.97 3030.5 2288.99C3028.3 2289 3019.75 2290.64 3011.5 2292.63C3003.25 2294.63 2994.93 2296.48 2993 2296.74C2990.94 2297.03 2988.26 2296.61 2986.5 2295.72C2984.85 2294.89 2981.47 2292.37 2979 2290.11C2976.53 2287.85 2973.82 2286 2973 2286C2972.18 2286.01 2969.47 2287.35 2967 2289C2964.53 2290.65 2961.38 2292.01 2960 2292.03C2958.63 2292.05 2956.68 2291.26 2955.69 2290.28C2954.38 2289 2954.01 2287.52 2954.35 2285C2954.62 2283.07 2956.62 2276.55 2958.81 2270.5C2960.99 2264.45 2963.93 2254.55 2965.34 2248.5C2966.75 2242.45 2968.63 2232.1 2969.52 2225.5C2970.4 2218.9 2971.13 2208.1 2971.14 2201.5C2971.14 2194.39 2970.45 2185.83 2969.45 2180.5C2968.52 2175.55 2966.88 2169.47 2965.8 2167C2964.73 2164.53 2963.1 2161.7 2962.18 2160.72C2961.26 2159.74 2959.38 2158.93 2958 2158.93C2956.63 2158.93 2954.73 2159.74 2953.8 2160.72C2952.86 2161.7 2949.57 2168.8 2946.49 2176.5C2943.41 2184.2 2939 2194.02 2936.69 2198.33C2934.39 2202.63 2929.57 2209.33 2926 2213.21C2921.72 2217.86 2915.57 2222.84 2908 2227.8C2901.68 2231.94 2892.9 2238.81 2888.5 2243.05C2883.88 2247.51 2879.23 2251.09 2877.5 2251.52C2875.85 2251.93 2872.7 2252.03 2870.5 2251.75C2868.3 2251.46 2862.48 2249.48 2857.58 2247.36C2850.66 2244.37 2848.13 2242.71 2846.32 2240C2845.04 2238.07 2843.99 2235.49 2844 2234.25C2844 2233.01 2845.78 2228.74 2847.95 2224.75C2850.12 2220.76 2854.12 2211.88 2856.85 2205C2859.57 2198.13 2862.74 2188.56 2863.9 2183.75C2865.13 2178.63 2866 2171.68 2866 2167C2866 2161.38 2865.48 2157.96 2864.25 2155.5C2863.29 2153.58 2861.46 2151.44 2860.2 2150.75C2858.26 2149.7 2857.37 2149.79 2854.7 2151.29C2852.74 2152.38 2849.48 2156.28 2846.32 2161.29C2843.47 2165.81 2838.72 2172.43 2835.77 2176C2832.82 2179.57 2827.17 2185.31 2823.21 2188.75C2818.05 2193.22 2815.22 2194.99 2813.25 2194.96C2811.74 2194.94 2809.29 2193.93 2807.81 2192.71C2806.33 2191.5 2803.26 2186.45 2800.98 2181.5C2798.7 2176.55 2794.86 2169.57 2792.44 2166C2790.03 2162.43 2787.76 2157.93 2787.38 2156C2787.01 2154.07 2787.29 2149.57 2787.99 2146C2788.96 2141.08 2789 2138.95 2788.14 2137.25C2787.51 2136.01 2785.99 2134.73 2784.75 2134.4C2783.51 2134.08 2781.38 2134.16 2780 2134.59C2778.63 2135.02 2774.13 2138.48 2770 2142.28C2765.88 2146.08 2758.68 2151.75 2754 2154.89C2749.32 2158.03 2742.01 2162.03 2737.75 2163.8C2733.45 2165.58 2728.22 2167 2726 2167C2723.8 2167 2720.31 2166.15 2718.25 2165.11C2716.19 2164.07 2713.2 2161.93 2711.61 2160.36C2710.02 2158.79 2708.11 2156.04 2707.36 2154.25C2706.34 2151.81 2706.27 2150.31 2707.06 2148.25C2707.65 2146.74 2710.98 2139.88 2714.46 2133C2717.95 2126.13 2723.09 2114.54 2725.9 2107.25C2728.7 2099.96 2731.68 2090.74 2732.52 2086.75C2733.35 2082.76 2733.77 2078.15 2733.45 2076.5C2733.12 2074.85 2732.33 2072.79 2731.68 2071.91C2731.03 2071.04 2729.49 2069.8 2728.25 2069.16C2727.01 2068.52 2724.99 2068.3 2723.75 2068.66C2722.51 2069.03 2716.76 2073.87 2710.96 2079.41C2705.16 2084.96 2696.16 2092.7 2690.96 2096.6C2685.76 2100.51 2677.68 2106.26 2673 2109.39C2667.68 2112.94 2663.47 2115.06 2661.75 2115.03C2660.24 2115.02 2657.76 2114.39 2656.25 2113.64C2654.74 2112.89 2651.8 2110.3 2649.73 2107.89C2647.65 2105.47 2645.69 2102.15 2645.36 2100.5C2644.99 2098.58 2645.71 2094.62 2647.37 2089.5C2648.81 2085.1 2652.19 2071.38 2654.91 2059C2657.62 2046.63 2660.52 2032.45 2661.36 2027.5C2662.19 2022.55 2663.19 2012.2 2663.58 2004.5C2664.18 1992.56 2664.04 1990.02 2662.64 1987.25C2661.74 1985.46 2659.54 1983.28 2657.75 1982.41C2655.64 1981.37 2653.28 1981.02 2651 1981.42C2649.07 1981.75 2645.36 1983.37 2642.75 1985.01C2639.05 1987.34 2636.29 1990.6 2630.27 1999.75C2624.47 2008.56 2619.04 2015.06 2608.52 2025.75C2596.58 2037.89 2594.06 2040 2591.5 2039.97C2589.85 2039.95 2587.15 2039.11 2585.5 2038.1C2583.85 2037.08 2581.26 2033.83 2579.74 2030.88C2578.22 2027.92 2576.98 2024.38 2576.99 2023C2577 2021.63 2577.72 2017.13 2578.59 2013C2579.46 2008.88 2580.8 2001.45 2581.57 1996.5C2582.34 1991.55 2582.97 1983.67 2582.98 1979C2582.98 1974.33 2582.5 1968.7 2581.9 1966.5C2581.29 1964.3 2580.06 1961.66 2579.15 1960.64C2578.24 1959.61 2576.38 1958.36 2575 1957.87C2573.03 1957.16 2571.12 1957.63 2566 1960.1C2559.85 1963.07 2559.31 1963.16 2556 1961.82C2553.66 1960.87 2551.51 1958.79 2549.5 1955.52L2546.5 1950.64L2547.19 1916.5C2541.06 1904.1 2538.32 1897.58 2537.15 1894C2535.97 1890.42 2533.1 1884.12 2530.76 1879.99C2528.42 1875.86 2524.78 1869.11 2522.69 1864.99C2519.07 1857.88 2518.9 1857.12 2519.32 1850C2519.56 1845.88 2520.53 1839.13 2521.48 1835C2522.69 1829.73 2523.04 1825.12 2522.68 1819.5C2522.33 1814.05 2521.27 1809.27 2519.36 1804.5C2517.83 1800.65 2513.52 1793 2509.8 1787.5C2506.08 1782 2500.52 1774.35 2497.46 1770.5C2494.4 1766.65 2490.36 1760.8 2488.48 1757.5C2486.61 1754.2 2483.78 1747.67 2482.19 1743C2480.61 1738.33 2478.72 1733.38 2477.99 1732C2477.27 1730.63 2474.83 1727.09 2472.59 1724.13C2469.6 1720.22 2465.12 1716.54 2456 1710.52C2449.13 1705.98 2440.57 1700.48 2437 1698.3C2433.43 1696.11 2426.9 1692.31 2422.5 1689.85C2418.1 1687.39 2411.13 1683.94 2407 1682.18C2402.88 1680.42 2397.74 1677.53 2395.59 1675.74C2393.44 1673.96 2390.46 1670.7 2388.97 1668.5C2387.48 1666.3 2385.05 1661.13 2383.58 1657C2382.1 1652.88 2379.17 1646.58 2377.07 1643C2374.97 1639.42 2372.01 1634.03 2370.49 1631C2368.97 1627.97 2366.21 1621.56 2364.36 1616.75C2361.13 1608.33 2361 1607.48 2361.02 1594.25C2361.04 1586.69 2361.49 1574.88 2362.03 1568C2362.57 1561.13 2364.13 1550.1 2365.49 1543.5C2366.86 1536.9 2369.53 1526.55 2371.43 1520.5C2373.34 1514.45 2377.34 1503.65 2380.33 1496.5C2383.32 1489.35 2390.03 1473.6 2395.24 1461.5C2400.45 1449.4 2406.87 1435.22 2409.49 1430C2412.12 1424.78 2419.66 1411.28 2426.24 1400C2432.83 1388.72 2441.4 1374.78 2445.29 1369C2449.17 1363.22 2454.86 1355.35 2457.93 1351.5C2460.99 1347.65 2463.99 1344.05 2464.59 1343.5C2465.2 1342.95 2468.35 1339.32 2471.59 1335.44C2474.84 1331.56 2479.64 1325.37 2482.25 1321.69C2484.86 1318.01 2487.79 1314.95 2488.75 1314.88C2489.71 1314.82 2491.18 1314.86 2492 1314.97C2492.82 1315.09 2494.28 1315.93 2495.24 1316.84C2496.2 1317.75 2497.2 1319.85 2497.48 1321.5C2497.76 1323.15 2498.66 1325.51 2499.49 1326.75C2500.58 1328.37 2501.98 1329 2504.53 1329C2507.38 1329 2508.91 1328.14 2512.53 1324.5C2514.99 1322.03 2521.37 1313.36 2526.7 1305.25C2532.04 1297.14 2539.42 1284.88 2543.1 1278C2546.79 1271.13 2551.08 1263.98 2552.65 1262.12C2554.22 1260.26 2556.74 1258.13 2558.25 1257.37C2560.66 1256.17 2561.53 1256.23 2565.25 1257.81C2567.59 1258.81 2570.77 1260.95 2572.32 1262.56C2573.86 1264.18 2575.82 1266.85 2576.67 1268.5C2577.94 1270.99 2578.12 1274.58 2577.71 1289.5C2577.44 1299.4 2576.75 1314.25 2576.18 1322.5C2575.61 1330.75 2574.89 1338.17 2574.58 1339C2574.28 1339.83 2573.59 1343.42 2573.06 1347C2572.54 1350.58 2571.42 1357.33 2570.58 1362C2569.74 1366.67 2568.34 1373.65 2567.48 1377.5C2566.62 1381.35 2566.13 1385.4 2566.39 1386.5C2566.65 1387.6 2568.13 1389.75 2569.68 1391.29C2571.23 1392.82 2573.51 1394.06 2574.75 1394.04C2575.99 1394.02 2578.46 1393.41 2580.25 1392.69C2582.04 1391.98 2585.45 1389.84 2587.83 1387.94C2590.21 1386.05 2594.02 1382.03 2596.3 1379C2598.57 1375.97 2604.18 1367.2 2608.77 1359.5C2613.35 1351.8 2619.73 1340.33 2622.95 1334C2626.17 1327.67 2631.04 1316.65 2633.78 1309.5C2636.53 1302.35 2639.12 1295.38 2639.56 1294C2640 1292.63 2641.96 1289.79 2643.93 1287.7C2646.25 1285.24 2648.38 1283.92 2650 1283.94C2651.48 1283.95 2653.8 1285.3 2655.69 1287.23C2657.44 1289.03 2659.39 1291.85 2660.01 1293.5C2660.63 1295.15 2661.49 1303.03 2661.92 1311C2662.36 1318.97 2662.39 1329.55 2661.99 1334.5C2661.59 1339.45 2660.06 1349.58 2658.58 1357C2657.11 1364.42 2654.68 1375.45 2653.2 1381.5C2651.64 1387.84 2650.5 1395.31 2650.5 1399.15C2650.5 1404.38 2650.92 1406.26 2652.5 1408.01C2653.6 1409.23 2655.51 1410.63 2656.75 1411.11C2658.39 1411.76 2660.15 1411.42 2663.25 1409.87C2665.59 1408.69 2670.66 1404.53 2674.53 1400.62C2678.4 1396.7 2684.13 1389.34 2687.28 1384.25C2690.43 1379.16 2697.22 1366.56 2702.37 1356.25C2707.53 1345.94 2713 1334.35 2714.53 1330.5C2716.06 1326.65 2718.52 1318.55 2719.99 1312.5C2721.47 1306.45 2723.54 1300.21 2724.59 1298.64C2725.64 1297.06 2727.85 1294.94 2729.5 1293.92C2731.15 1292.9 2733.63 1292.04 2735 1292.02C2736.7 1291.99 2739 1293.5 2742.17 1296.74C2746.53 1301.19 2746.9 1301.99 2747.88 1309C2748.45 1313.13 2749.03 1333.38 2749.16 1354C2749.29 1374.63 2749.01 1399.15 2748.53 1408.5C2747.68 1425.18 2747.7 1425.54 2749.83 1427.75C2751.13 1429.1 2753.2 1430 2755 1430C2757.19 1430 2759.38 1428.72 2763.14 1425.25C2765.96 1422.64 2769.41 1418.7 2770.8 1416.5C2772.19 1414.3 2775.6 1408.22 2778.37 1403C2781.14 1397.78 2786.29 1387.2 2789.82 1379.5C2793.34 1371.8 2798.58 1360.1 2801.44 1353.5C2804.31 1346.9 2807.24 1339.7 2807.95 1337.5C2808.66 1335.3 2810.2 1331.33 2811.37 1328.67C2812.64 1325.79 2814.31 1323.63 2815.5 1323.33C2816.6 1323.04 2818.4 1323.05 2819.5 1323.35C2820.6 1323.65 2822.09 1325.15 2822.81 1326.7C2823.87 1328.97 2823.91 1332.73 2822.99 1346.5C2822.37 1355.85 2821.46 1366.42 2820.98 1370C2820.49 1373.58 2819.78 1379.65 2819.41 1383.5C2818.87 1389.02 2819.07 1391.19 2820.36 1393.75C2821.26 1395.54 2823.24 1397.95 2824.75 1399.11C2827.1 1400.9 2828.38 1401.13 2833.5 1400.62C2837.87 1400.19 2840.45 1399.3 2843 1397.34C2844.93 1395.86 2847.74 1393.15 2849.25 1391.32C2851.13 1389.05 2852.87 1387.99 2854.75 1387.97C2856.42 1387.96 2858.48 1388.96 2860 1390.54C2862.38 1393 2862.46 1393.49 2861.75 1400.56C2861.34 1404.65 2859.89 1412.61 2858.54 1418.25C2857.19 1423.89 2855.61 1431.2 2855.04 1434.5C2854.46 1437.8 2853.99 1442.08 2854 1444C2854 1445.92 2854.91 1448.96 2856 1450.75C2857.1 1452.54 2859.01 1454.5 2860.25 1455.1C2861.49 1455.71 2864.07 1455.94 2866 1455.62C2868.12 1455.26 2871.47 1453.32 2874.5 1450.69C2877.25 1448.29 2881.94 1442.55 2884.93 1437.92C2888.11 1433 2895.59 1424.09 2902.93 1416.48C2909.84 1409.33 2918.06 1399.65 2921.18 1394.98C2924.31 1390.32 2929.33 1381.33 2932.35 1375C2935.37 1368.67 2939.66 1357.88 2941.88 1351C2944.09 1344.13 2946.81 1334.9 2947.91 1330.5C2949.01 1326.1 2950.64 1318.22 2951.53 1313C2952.42 1307.78 2953.79 1302.49 2954.58 1301.25C2955.36 1300.01 2957.46 1298.1 2959.25 1297.01C2961.15 1295.85 2963.33 1295.27 2964.5 1295.62C2965.6 1295.95 2968.45 1298.08 2970.83 1300.36C2973.21 1302.64 2975.75 1305.63 2976.47 1307C2977.18 1308.38 2978.47 1312.88 2979.33 1317C2980.19 1321.13 2981.4 1331.25 2982.02 1339.5C2982.64 1347.75 2983.55 1357.42 2984.04 1361C2984.54 1364.58 2986.18 1370.42 2987.7 1374C2990.18 1379.84 2990.42 1381.41 2990.06 1389.5C2989.84 1394.45 2989.63 1406.68 2989.58 1416.67C2989.5 1434.74 2989.51 1434.86 2992 1437.45C2993.71 1439.22 2995.53 1440.04 2997.75 1440.03C2999.98 1440.01 3002.15 1438.98 3004.66 1436.75C3006.67 1434.96 3009.98 1431.25 3012.02 1428.5C3014.05 1425.75 3018.24 1419 3021.32 1413.5C3024.4 1408 3028.75 1399 3030.99 1393.5C3033.23 1388 3036.39 1378.78 3038.02 1373C3039.65 1367.22 3041.86 1358 3042.94 1352.5C3044.01 1347 3045.61 1334.85 3046.49 1325.5C3047.37 1316.15 3048.3 1307.49 3048.55 1306.25C3048.8 1305.01 3050.35 1302.42 3052 1300.5C3054.04 1298.12 3055.88 1296.99 3057.75 1296.96C3059.57 1296.93 3061.61 1298.03 3063.78 1300.21C3065.58 1302.02 3067.67 1305.3 3068.41 1307.5C3069.15 1309.7 3072.48 1319.83 3075.81 1330C3079.14 1340.17 3082.78 1352.33 3083.9 1357C3085.01 1361.67 3086.38 1368.2 3086.93 1371.5C3087.49 1374.8 3088.85 1383.69 3089.97 1391.25C3091.35 1400.57 3092 1410.07 3091.99 1420.75C3091.99 1429.41 3091.54 1440.33 3090.99 1445C3090.33 1450.66 3090.33 1455.26 3091 1458.75C3091.74 1462.64 3092.77 1464.65 3095 1466.5C3096.65 1467.88 3099.13 1469 3100.5 1469C3101.88 1469 3104.46 1468.41 3106.25 1467.69C3108.04 1466.97 3111.07 1465.22 3113 1463.81C3114.93 1462.39 3118.39 1458.36 3120.69 1454.86C3122.99 1451.36 3126.65 1444.67 3128.83 1440C3131 1435.33 3133.46 1429.92 3134.31 1428C3135.16 1426.08 3136.99 1421.13 3138.38 1417C3139.77 1412.88 3141.37 1406.35 3141.94 1402.5C3142.5 1398.65 3143.66 1391.9 3144.51 1387.5C3145.36 1383.1 3146.98 1373.65 3148.12 1366.5C3149.5 1357.75 3150.47 1344.84 3151.08 1327C3151.58 1312.42 3152.41 1298.03 3152.92 1295C3153.43 1291.97 3153.89 1286.69 3153.93 1283.25C3153.97 1279.81 3154.63 1275.76 3155.41 1274.25C3156.19 1272.74 3158.1 1270.32 3159.66 1268.87C3161.22 1267.43 3163.51 1265.74 3164.75 1265.12C3165.99 1264.5 3168.01 1264.3 3169.25 1264.68C3170.49 1265.05 3173.21 1266.96 3175.31 1268.93C3178.38 1271.81 3179.61 1274.15 3181.67 1281C3183.07 1285.67 3184.89 1292.65 3185.71 1296.5C3186.53 1300.35 3187.82 1307.78 3188.57 1313C3189.32 1318.22 3190.41 1327.9 3190.99 1334.5C3191.58 1341.1 3192.43 1351 3192.89 1356.5C3193.41 1362.76 3194.43 1367.95 3195.61 1370.39C3196.65 1372.53 3198.74 1374.89 3200.25 1375.64C3202.64 1376.82 3203.36 1376.78 3205.75 1375.33C3207.26 1374.4 3209.08 1372.94 3209.8 1372.08C3210.51 1371.21 3213.58 1365.33 3216.63 1359C3219.67 1352.67 3223.21 1345.03 3224.49 1342C3225.77 1338.97 3227.51 1333.8 3228.36 1330.5C3229.21 1327.2 3230.39 1321.58 3231 1318C3231.6 1314.42 3232.5 1301.6 3233 1289.5C3233.49 1277.4 3234.33 1265.92 3234.86 1264C3235.39 1262.08 3236.08 1258.81 3236.41 1256.75C3236.8 1254.25 3238.42 1251.46 3241.25 1248.38C3243.59 1245.83 3246.63 1243.34 3248 1242.84C3249.54 1242.29 3251.66 1242.31 3253.5 1242.91C3255.15 1243.45 3257.87 1245.37 3259.54 1247.19C3261.96 1249.81 3262.93 1252.26 3264.25 1259C3265.17 1263.67 3266.39 1270.2 3266.97 1273.5C3267.54 1276.8 3268.01 1288.61 3268.01 1299.75C3268 1310.89 3268.4 1320.79 3268.88 1321.75C3269.36 1322.71 3272.29 1325.41 3275.38 1327.75C3278.47 1330.09 3281.69 1333.01 3282.53 1334.25C3283.71 1335.98 3284.24 1341.21 3284.82 1357C3285.49 1374.96 3285.83 1377.85 3287.54 1380.3C3288.65 1381.88 3290.8 1383.36 3292.5 1383.69C3294.58 1384.1 3296.42 1383.67 3298.5 1382.3C3300.15 1381.21 3303.74 1376.98 3306.48 1372.91C3309.21 1368.83 3312.64 1362.58 3314.09 1359C3315.53 1355.42 3318.4 1346.65 3320.46 1339.5C3322.52 1332.35 3326.15 1320.2 3328.52 1312.5C3330.9 1304.8 3333.57 1294.9 3334.46 1290.5C3335.35 1286.1 3336.72 1281.6 3337.5 1280.5C3338.29 1279.4 3339.51 1277.83 3340.22 1277C3340.92 1276.17 3344.36 1273.03 3347.86 1270C3351.39 1266.95 3355.74 1261.94 3357.61 1258.75C3359.48 1255.59 3361.9 1252.55 3363 1252C3364.1 1251.45 3366.35 1251.22 3368 1251.5C3370.06 1251.84 3371.47 1252.94 3372.5 1255C3373.47 1256.93 3374.41 1263.97 3375.16 1274.75C3376.03 1287.44 3376.03 1292.65 3375.16 1296.25C3374.52 1298.86 3373.99 1303.14 3373.97 1305.75C3373.95 1309.39 3374.48 1311.02 3376.22 1312.73C3377.48 1313.95 3379.51 1314.97 3380.75 1314.98C3382.11 1314.99 3384.62 1313.31 3387.09 1310.75C3389.34 1308.41 3393.05 1303.13 3395.33 1299C3397.61 1294.88 3400.74 1288.58 3402.29 1285C3403.83 1281.42 3406.49 1273.33 3408.19 1267C3410.85 1257.14 3411.37 1253.12 3411.89 1238.83C3412.48 1222.8 3412.6 1222.05 3415 1219.55C3416.38 1218.12 3418.4 1216.96 3419.5 1216.97C3420.6 1216.98 3422.4 1217.59 3423.5 1218.34C3424.6 1219.08 3426.36 1221.45 3427.4 1223.6C3428.45 1225.74 3429.92 1231.55 3430.67 1236.5C3431.42 1241.45 3432.56 1248.88 3433.21 1253C3433.85 1257.13 3434.37 1270.4 3434.36 1282.5C3434.34 1299.41 3433.95 1306.18 3432.67 1311.75C3431.75 1315.74 3431 1321.03 3431 1323.5C3431 1327.2 3431.45 1328.31 3433.55 1329.75C3436.01 1331.44 3436.21 1331.42 3438.8 1329.4C3440.29 1328.24 3443.22 1324.41 3445.33 1320.9C3447.43 1317.38 3452.32 1307.97 3456.19 1300C3462.81 1286.36 3463.74 1285 3471.88 1277C3477.6 1271.39 3482.27 1265.61 3485.62 1260C3488.42 1255.33 3492.48 1248.13 3494.66 1244C3496.84 1239.88 3499.6 1233.8 3500.79 1230.5C3501.99 1227.2 3503.46 1222.25 3504.07 1219.5C3504.67 1216.75 3505.83 1209.78 3506.65 1204C3507.46 1198.22 3508.46 1189.22 3508.86 1184C3509.4 1177 3510.24 1173.2 3512.05 1169.57C3513.4 1166.86 3515.51 1164.04 3516.75 1163.32C3518.49 1162.3 3519.51 1162.26 3521.25 1163.15C3522.49 1163.78 3523.83 1164.79 3524.23 1165.4C3524.64 1166 3524.98 1169.54 3524.98 1173.25C3524.99 1176.96 3523.63 1186.86 3521.95 1195.25C3520.27 1203.64 3519.15 1211.51 3519.45 1212.75C3519.75 1213.99 3521.35 1215.67 3523 1216.5C3525.62 1217.81 3526.34 1217.82 3528.75 1216.56C3530.26 1215.77 3533.11 1213.63 3535.08 1211.81C3537.05 1209.99 3541.04 1205.35 3543.96 1201.5C3546.87 1197.65 3552.52 1190.45 3556.5 1185.5C3560.49 1180.55 3566.88 1171.78 3570.7 1166C3574.52 1160.22 3579.05 1153.03 3580.76 1150C3582.47 1146.97 3585.74 1138.65 3588.04 1131.5C3590.34 1124.35 3593.22 1116.47 3594.43 1114C3595.65 1111.53 3598.95 1106.35 3601.77 1102.5C3604.96 1098.14 3607.85 1092.67 3609.42 1088C3611.33 1082.31 3613.1 1079.27 3616.72 1075.42C3619.35 1072.63 3623.07 1069.52 3625 1068.52C3626.93 1067.51 3630.75 1065.05 3633.5 1063.04C3636.25 1061.03 3642.1 1057.16 3646.5 1054.44C3650.9 1051.72 3656.42 1047.47 3658.77 1045C3661.12 1042.53 3664.47 1037.8 3666.21 1034.5C3667.95 1031.2 3670.25 1025.35 3671.32 1021.5C3672.6 1016.86 3673.43 1009.95 3673.75 1001C3674.12 991.05 3673.83 985.4 3672.67 979.5C3671.8 975.1 3670.13 969.25 3668.97 966.5C3667.8 963.75 3665.17 959.02 3663.13 956C3661.08 952.98 3658.23 948.48 3656.79 946C3655.35 943.52 3652.82 936.77 3651.18 931C3649.54 925.23 3647.03 916.34 3645.6 911.25C3644.17 906.16 3639.45 894.01 3635.1 884.25C3630.76 874.49 3625.3 862 3622.98 856.5C3620.66 851 3614.93 838.17 3610.26 828C3602.15 810.34 3601.73 809.07 3600.95 800C3600.5 794.77 3599.38 788.25 3598.46 785.5C3597.54 782.75 3594.81 776.67 3592.39 772C3589.97 767.33 3583.28 757.2 3577.52 749.5C3571.77 741.8 3565.36 732.38 3563.28 728.57C3561.2 724.76 3557.57 719.13 3555.2 716.07C3552.84 713.01 3549.01 708.98 3546.7 707.12C3544.39 705.25 3539.8 702.5 3536.5 701C3533.2 699.49 3528.25 697.44 3525.5 696.44C3522.75 695.45 3518.78 693.03 3516.68 691.06C3514.59 689.1 3511.44 684.91 3509.68 681.75C3507.87 678.47 3501.96 671.36 3495.97 665.25C3490.18 659.34 3480.66 649.1 3474.8 642.5C3468.95 635.9 3460.92 626.45 3456.95 621.5C3452.99 616.55 3445.86 608.45 3441.12 603.5C3436.38 598.55 3431.52 592.48 3430.33 590C3429.13 587.52 3426.16 582.8 3423.73 579.5C3421.29 576.2 3416.7 570.58 3413.52 567C3410.33 563.42 3405.87 558.48 3403.59 556C3401.32 553.52 3396.77 549.22 3393.48 546.43C3390.19 543.64 3384.35 539.15 3380.5 536.45C3376.65 533.75 3369.68 529.87 3365 527.82C3360.32 525.78 3354.03 522.07 3351 519.59C3347.97 517.11 3343.93 513.79 3342 512.2C3339.96 510.52 3334.53 508.05 3329 506.28C3321.63 503.93 3315.46 500.79 3301.5 492.28C3291.6 486.25 3278.78 478.46 3273 474.98C3267.22 471.49 3258.9 466.27 3254.5 463.37C3250.1 460.47 3243.13 456.88 3239 455.4C3234.88 453.92 3229.7 451.47 3227.5 449.96C3225.3 448.44 3219.9 443.89 3215.5 439.84C3211.1 435.79 3204.21 429.78 3200.18 426.49C3196.15 423.19 3190.98 419.01 3188.68 417.19C3186.38 415.37 3180.9 412.1 3176.5 409.93C3170.23 406.83 3167.36 405.98 3163.25 405.99C3160.36 405.99 3156.76 406.62 3155.25 407.38C3153.74 408.14 3150.7 409.95 3148.5 411.41C3146.3 412.87 3143.15 414.31 3141.5 414.61C3139.69 414.93 3136.52 414.37 3133.5 413.18C3130.75 412.1 3117.93 406.17 3105 399.99C3084.45 390.17 3080.81 388.75 3076 388.63C3071.57 388.53 3069.85 388.98 3067.14 391C3065.3 392.38 3061.85 396.88 3059.49 401C3057.13 405.13 3053.58 409.96 3051.6 411.75C3049.62 413.54 3046.99 415.05 3045.75 415.11C3044.51 415.17 3042.38 415.12 3041 415C3039.63 414.88 3036.47 413.76 3034 412.5C3031.53 411.25 3024.1 408.1 3017.5 405.5C3010.9 402.9 3003.25 400.54 3000.5 400.25C2997.13 399.9 2994.52 400.23 2992.5 401.24C2990.85 402.07 2987.47 404.66 2985 406.99C2982.53 409.32 2979.15 412.07 2977.5 413.11C2975.85 414.15 2973.82 415 2973 415.01C2972.18 415.02 2967.45 413.3 2962.5 411.18C2957.55 409.06 2948.1 405.62 2941.5 403.55C2934.9 401.47 2926.57 399.16 2923 398.4C2919.43 397.65 2913.57 397.03 2910 397.02L2903.5 397.01C2884.13 417.14 2877.26 423.43 2875.75 423.99C2874.24 424.54 2871.76 424.71 2870.25 424.35C2868.74 424 2863.11 421.52 2857.75 418.85C2852.39 416.18 2845.19 412.29 2841.75 410.2C2838.31 408.11 2830.32 404.11 2824 401.31C2817.68 398.51 2811.15 395.92 2809.5 395.57C2807.85 395.21 2804.93 395.45 2803 396.1C2801.07 396.75 2798.26 398.12 2796.75 399.14C2795.19 400.2 2792.7 403.81 2791 407.5C2789.35 411.07 2786.76 414.92 2785.25 416.03C2783.74 417.15 2781.49 418.05 2780.25 418.03C2779.01 418.02 2774.29 416.01 2769.75 413.58C2765.21 411.14 2758.57 408 2755 406.6C2751.43 405.19 2741.97 402.42 2734 400.44C2725.81 398.41 2715.8 396.63 2711 396.35C2704.07 395.96 2701.85 396.2 2699 397.68C2696.83 398.81 2694.77 401.02 2693.58 403.5C2691.81 407.19 2691.76 408.08 2692.98 415C2693.71 419.13 2694.52 424.52 2694.79 427C2695.25 431.28 2695.03 431.75 2690.39 436.62C2686.93 440.24 2683.81 442.36 2679.75 443.87C2676.59 445.04 2672.54 446.01 2670.75 446.02C2668.96 446.03 2665.7 445.41 2663.5 444.64C2661.3 443.87 2652.97 440.07 2645 436.2C2634.65 431.17 2627.78 428.54 2621 427C2615.78 425.82 2609.03 423.6 2606 422.07C2602.97 420.54 2598.03 417.72 2595 415.8C2591.97 413.89 2585.45 410.42 2580.5 408.09C2575.55 405.76 2566.55 400.99 2560.5 397.47C2554.45 393.96 2545 389.21 2539.5 386.92C2531.18 383.46 2528.74 382.85 2525 383.3C2521.47 383.72 2519.8 384.61 2517.25 387.42C2515.46 389.39 2513.53 392.69 2512.97 394.75C2512.4 396.81 2511.61 400.7 2511.22 403.4C2510.78 406.35 2509.61 409.23 2508.25 410.65C2507.01 411.94 2504.99 413.28 2503.75 413.62C2502.14 414.06 2500.12 413.27 2496.68 410.87C2494.03 409.02 2486.38 404.03 2479.68 399.79C2472.98 395.54 2462.1 388.8 2455.5 384.81C2448.9 380.82 2441.25 375.89 2438.5 373.85C2435.75 371.81 2430.8 368.75 2427.5 367.03C2421.88 364.12 2420.92 363.94 2412.39 364.21L2403.27 364.5C2394.54 358.3 2390.32 355.6 2388.25 354.5C2385.68 353.13 2381.67 352.31 2375.5 351.91C2367.79 351.4 2364.92 350.65 2355.5 346.68C2347.68 343.38 2341.76 341.63 2335 340.62C2329.78 339.84 2320.1 337.34 2313.5 335.06C2306.9 332.79 2297.9 330.06 2293.5 329C2289.1 327.94 2281.45 326.6 2276.5 326.02C2271.55 325.45 2262.78 324.15 2257 323.13C2250.48 321.98 2244.61 320.28 2241.5 318.62C2238.75 317.16 2231.1 312.25 2224.5 307.72C2217.9 303.19 2208 297.48 2202.5 295.03C2194.56 291.5 2191.06 290.5 2185.5 290.17C2179.39 289.81 2177.74 290.12 2172.5 292.6C2169.2 294.16 2164.7 297.31 2162.5 299.59C2160.3 301.87 2156.66 307.51 2154.41 312.12C2152.16 316.74 2149.02 321.53 2147.41 322.78C2145.81 324.04 2143.49 325.05 2142.25 325.03C2141.01 325.02 2136.29 322.35 2131.75 319.11C2127.21 315.87 2119.45 310.94 2114.5 308.16C2109.55 305.37 2102.13 301.67 2098 299.93C2093.88 298.19 2085.78 294.13 2080 290.91C2074.22 287.68 2066.57 283.83 2063 282.33C2057.7 280.12 2054.93 279.61 2048 279.58C2040.71 279.55 2038.65 279.95 2033.5 282.37C2030.16 283.94 2024.84 287.76 2021.5 290.96C2018.2 294.14 2014.49 297.24 2013.25 297.87C2012.01 298.49 2009.99 299 2008.75 299C2007.51 299.01 2004.7 298.04 2002.5 296.87C2000.3 295.69 1994.22 291.47 1989 287.49C1983.78 283.51 1977.92 279.46 1976 278.49C1974.08 277.52 1970.47 276.73 1968 276.72C1965.53 276.72 1960.69 277.68 1957.25 278.86C1953.81 280.04 1950.21 281 1949.25 280.99C1948.29 280.99 1939.17 277.35 1929 272.91C1918.83 268.47 1905.33 262.67 1899 260.04C1892.67 257.41 1878.95 252.42 1868.5 248.97C1858.05 245.51 1844.78 240.78 1839 238.46C1833.22 236.13 1826.7 233.91 1824.5 233.52C1821.87 233.06 1819.51 233.28 1817.62 234.16C1816.03 234.9 1814.35 236.29 1813.87 237.25C1813.39 238.21 1813 241.25 1813 244C1813 246.94 1814.19 252.39 1815.89 257.25C1817.48 261.79 1819.28 267.75 1819.89 270.5C1820.5 273.25 1821.46 277.98 1822.02 281C1822.58 284.02 1824.61 290.1 1826.52 294.5C1828.44 298.9 1830 303.96 1830 305.75C1830 308.14 1829.2 309.66 1827 311.5C1825.35 312.88 1822.88 314 1821.5 314C1820.13 314 1816.3 312.65 1813 311C1809.7 309.35 1803.63 306.88 1799.5 305.5C1794.41 303.8 1789.83 303.01 1785.25 303.02C1781.54 303.03 1775.46 303.48 1771.75 304.02C1766.01 304.85 1764.37 304.73 1760.75 303.2C1758.41 302.21 1753.13 298.19 1749 294.27C1744.88 290.35 1738.13 284.8 1734 281.95C1729.88 279.09 1723.13 274.25 1719 271.19C1714.88 268.13 1704.97 259.25 1697 251.45C1688.62 243.26 1679.33 235.23 1675 232.44C1670.88 229.78 1663.67 225.69 1659 223.35C1654.33 221 1640.38 214.85 1628 209.68C1615.63 204.5 1601.79 199.08 1597.25 197.63C1592.71 196.18 1587.54 194.99 1585.75 194.98C1583.96 194.98 1580.03 196.21 1577.01 197.73C1573.44 199.53 1570.58 201.9 1568.84 204.5C1567.37 206.7 1565.64 210.3 1565 212.5C1564.36 214.7 1562.77 218.07 1561.48 220C1560.18 221.93 1557.29 224.51 1555.06 225.75C1552.47 227.19 1550.01 227.82 1548.25 227.5C1546.74 227.23 1543.25 225.59 1540.5 223.86C1537.75 222.13 1533.25 218.87 1530.5 216.62C1527.75 214.36 1519.42 206.65 1512 199.47C1504.58 192.29 1494.22 183.02 1489 178.86C1483.78 174.7 1477.03 169.71 1474 167.76C1470.97 165.81 1465.13 162.66 1461 160.75C1456.88 158.85 1449.67 155.08 1445 152.37C1440.33 149.67 1434.25 146.49 1431.5 145.31C1428.75 144.14 1423.8 142.67 1420.5 142.05C1417.2 141.43 1408.76 139.82 1401.75 138.46C1394.74 137.11 1387.76 135.99 1386.25 135.97C1384.74 135.95 1381.7 137.14 1379.5 138.61C1377.3 140.08 1374.93 142.01 1374.23 142.89C1373.54 143.78 1372.27 146.07 1371.42 148C1370.57 149.93 1368.27 156.45 1366.32 162.5C1364.36 168.55 1361.47 176.31 1359.88 179.75C1357.75 184.38 1356.16 186.41 1353.75 187.6C1351.96 188.47 1349.6 188.94 1348.5 188.63C1347.4 188.32 1344.7 186.43 1342.5 184.45C1340.3 182.46 1334.67 179.02 1330 176.8C1325.33 174.58 1316.78 169.74 1311 166.04C1305.22 162.34 1298.47 158.14 1296 156.71C1293.53 155.28 1283.17 150.53 1273 146.16C1262.83 141.79 1251.13 136.64 1247 134.72C1242.88 132.81 1236.69 130.06 1233.25 128.62C1229.81 127.18 1222.39 124.92 1216.75 123.61C1211.11 122.3 1203.35 120.71 1199.5 120.09C1195.65 119.47 1186.65 118.05 1179.5 116.94C1172.35 115.83 1160.42 113.63 1153 112.03C1145.58 110.44 1136.01 108.44 1131.75 107.57C1127.49 106.71 1120.74 106.01 1116.75 106.02C1111.41 106.03 1108.71 106.53 1106.5 107.91Z" />
</svg>