<svg xmlns="http://www.w3.org/2000/svg" viewBox="0 0 1640 856" width="" height="">
	<style>
		tspan { white-space:pre }
		.shp0 { fill: #2a3a18 }
	</style>
	<path id="Path 0" fill-rule="evenodd" class="shp0" d="M216.23 249C216.65 249 216.98 249.56 216.96 250.25C216.94 250.94 214.73 254.43 212.05 258C209.36 261.57 205.66 266.98 203.81 270C201.96 273.02 197.1 280 193 285.5C188.9 291 184.18 297.78 182.52 300.56C180.86 303.34 178.63 306.49 177.57 307.56C176.51 308.63 173.17 312.88 170.14 317C167.12 321.13 157.37 334.18 148.49 346C139.61 357.82 130.6 369.98 128.47 373C126.34 376.02 121.64 382.77 118.03 388C114.42 393.23 109.56 400.54 107.23 404.25C104.9 407.96 102.66 412.18 102.25 413.63C101.84 415.08 100.82 416.59 100 416.99C99.18 417.39 95.99 421.5 92.91 426.11C89.84 430.73 84.04 439.9 80.02 446.5C76.01 453.1 69.93 463.23 66.52 469C63.11 474.77 57.22 485.35 53.43 492.5C49.64 499.65 43.43 511.8 39.62 519.5C35.81 527.2 29.8 539.58 26.25 547C22.71 554.42 17.1 566.58 13.79 574C10.48 581.42 4.44 596.05 0.35 606.5C-3.73 616.95 -8.4 628.88 -10.01 633C-11.63 637.13 -12.74 640.84 -12.47 641.25C-12.21 641.66 -11.08 641.21 -9.96 640.25C-8.83 639.29 -7.72 637.83 -7.49 637C-7.25 636.17 -1.83 631 4.57 625.5C10.97 620 19.19 613.77 22.85 611.66C26.51 609.55 30.17 607.2 31 606.44C31.83 605.68 34.07 604.25 36 603.28C37.92 602.3 40.06 600.26 40.75 598.75C41.44 597.24 43.01 595.81 44.25 595.57C45.49 595.33 47.06 593.98 47.75 592.57C48.44 591.16 50.13 589.33 51.5 588.5C52.88 587.67 54 586.44 54 585.75C54 585.06 57.11 582.02 60.91 579C64.72 575.98 68.07 572.6 68.37 571.5C68.67 570.4 71.41 568.04 74.46 566.25C77.53 564.45 81.09 561.33 82.44 559.25C83.79 557.19 87.35 553.7 90.36 551.5C93.37 549.3 96.88 545.77 98.17 543.66C99.45 541.54 102.53 538.41 105 536.7C107.47 534.99 115.69 527.39 123.25 519.8C130.81 512.21 137 505.55 137 505C137 504.45 139 502.76 141.45 501.25C143.89 499.74 146.93 497.11 148.2 495.4C149.46 493.7 155.22 488.07 161 482.9C166.77 477.73 174.16 471.47 177.4 469C180.65 466.52 185.31 462.93 187.77 461C190.22 459.07 194.62 456.15 197.54 454.5C200.46 452.85 206.14 449.27 210.17 446.55C214.2 443.83 221.32 438.48 226 434.67C230.68 430.86 236.07 425.72 238 423.24C239.93 420.77 248.21 411.49 256.41 402.62C264.6 393.76 272.93 384.58 274.91 382.24C276.88 379.89 279.06 377.98 279.75 377.99C280.44 377.99 280.99 378.79 280.97 379.75C280.95 380.71 278.63 385.55 275.81 390.5C272.99 395.45 267.49 404.58 263.59 410.78C259.69 416.99 251.77 428.52 246 436.4C240.23 444.28 232.58 454.73 229.02 459.61C225.46 464.5 219.12 472.55 214.94 477.5C210.76 482.45 206.75 487.63 206.02 489C205.3 490.38 203.41 493.07 201.81 495C200.22 496.93 195.98 502.1 192.39 506.5C188.81 510.9 185.17 515.85 184.3 517.5C183.44 519.15 181.11 522.38 179.12 524.68C177.13 526.99 174.56 530.14 173.41 531.68C172.25 533.23 168.72 538.33 165.54 543C162.37 547.67 159.23 551.95 158.55 552.5C157.88 553.05 155.34 555.98 152.9 559C150.47 562.02 147.71 565.63 146.77 567C145.83 568.38 143.61 571.52 141.82 574C140.04 576.48 137.21 581.01 135.54 584.07C133.87 587.13 131.2 591.63 129.61 594.07C128.01 596.51 124.64 600.52 122.11 603C119.57 605.48 114.01 611.66 109.75 616.75C105.49 621.84 102 626.67 102 627.5C102 628.33 102.79 629.29 103.75 629.65C104.71 630.01 108.65 629.27 112.5 628.01C119.27 625.8 119.67 625.78 124.5 627.37C127.25 628.28 130.4 629 131.5 628.98C132.6 628.96 135.99 626.59 139.03 623.72C142.07 620.85 145.9 617.28 147.53 615.79C149.16 614.3 150.95 612.6 151.5 612C152.05 611.4 154.46 609.47 156.86 607.71C159.91 605.46 162.06 602.7 164.01 598.5C165.55 595.2 167.07 591.71 167.4 590.75C167.84 589.48 169.16 588.97 172.25 588.9C174.59 588.85 177.46 588.51 178.63 588.15C179.8 587.79 182.37 586.15 184.35 584.5C186.32 582.85 190.24 579.92 193.05 578C195.87 576.08 200.05 573.04 202.34 571.27C204.63 569.49 208.75 566.99 211.5 565.72C214.25 564.44 216.84 562.86 217.25 562.2C217.66 561.54 219.69 560.1 221.75 558.99C223.81 557.88 226.18 556.55 227 556.03C227.82 555.5 235.25 551.84 258.5 540.71L274 525.6C282.52 517.29 293.77 506.91 299 502.54C304.23 498.16 313.9 489.83 320.5 484.03C327.1 478.23 337.45 469.2 343.5 463.96C349.55 458.73 360.8 449.32 368.5 443.06C376.2 436.8 384.07 430.21 386 428.42C387.93 426.64 398.5 418.99 409.5 411.43C420.5 403.86 435.35 393.33 442.5 388.02C449.65 382.71 457.64 376.48 460.25 374.18C462.86 371.88 465.34 369.99 465.75 369.97C466.16 369.96 466.84 370.29 467.26 370.72C467.67 371.15 467.26 372.63 466.34 374C465.41 375.38 460.51 381.45 455.45 387.5C450.38 393.55 441.84 403.23 436.48 409C431.12 414.77 403.72 442.68 375.59 471C347.46 499.32 318.88 528.35 312.09 535.5C305.29 542.65 298.11 550.86 296.12 553.73C294.13 556.61 291.34 559.54 289.92 560.23C288.49 560.93 284.56 564.76 281.17 568.75C277.77 572.74 274.66 575.98 274.25 575.95C273.84 575.93 270.86 578.97 267.63 582.7C264.4 586.44 256.86 594.56 250.88 600.75C244.89 606.94 240 612.67 240 613.5C240 614.33 240.45 615.23 241 615.5C241.55 615.77 243.86 614.54 246.14 612.75C248.42 610.96 252.59 607.43 255.39 604.9C258.2 602.37 267.7 594.07 276.5 586.46C285.3 578.84 296.32 569.15 301 564.93C305.68 560.7 317.6 549.89 327.5 540.92C337.4 531.94 351.74 518.5 359.37 511.05C366.99 503.6 378.87 491.2 385.76 483.5C392.65 475.8 400.84 466.35 403.96 462.5C407.09 458.65 413.43 450.45 418.07 444.28C422.71 438.1 427.85 431.18 429.5 428.89C431.15 426.6 434.18 422.43 436.24 419.62C438.3 416.8 440.46 412.93 441.04 411C441.65 408.97 443.85 405.99 446.29 403.9C448.61 401.92 452.75 396.97 455.5 392.9C458.25 388.83 462.46 383.02 464.86 380C467.27 376.98 470.14 372.7 471.25 370.5C472.36 368.3 474.34 365.26 475.64 363.75C476.94 362.24 478.01 359.99 478.03 358.75C478.04 357.51 478.83 355.7 479.78 354.72C480.72 353.74 482.06 352.95 482.75 352.97C483.44 352.99 484 353.23 484 353.5C484 353.77 482.65 359.06 480.99 365.25C478.93 372.94 475.65 381.25 470.63 391.5C466.12 400.7 459.3 412.3 452.99 421.5C447.33 429.75 439.28 440.77 435.1 446C430.93 451.23 423.7 460 419.04 465.5C414.39 471 397.74 488.35 382.04 504.06C366.34 519.77 348.03 537.77 341.34 544.06C334.65 550.35 328.58 556.73 327.84 558.24C327.1 559.74 326.73 561.23 327 561.53C327.27 561.83 330.2 560.65 333.5 558.89C336.8 557.13 342.65 554.13 346.5 552.21C350.35 550.3 355.07 548.15 357 547.43C358.93 546.72 362.98 545.21 366 544.07C369.02 542.93 373.19 542 375.25 542C377.31 542 379.23 542.45 379.5 543C379.77 543.55 378.76 545.39 377.25 547.1C375.74 548.8 370.9 552.99 366.5 556.4C362.1 559.81 356.02 564.26 353 566.29C349.98 568.31 344.57 572.22 341 574.98C337.43 577.74 332.48 581.46 330 583.24C327.52 585.03 322.52 588.96 318.87 591.99C315.23 595.02 309.39 599.75 305.89 602.5C302.4 605.25 297.51 608.96 295.02 610.75C292.53 612.54 287.7 616.81 284.27 620.25C280.85 623.69 278.26 626.84 278.52 627.25C278.79 627.66 280.01 627.72 281.25 627.38C282.49 627.03 286.43 625.4 290 623.75C293.57 622.09 297.63 619.89 299 618.85C300.38 617.81 302.85 616.69 304.5 616.36C306.15 616.04 307.95 615.38 308.5 614.91C309.05 614.44 313.1 612.67 317.5 610.96C321.9 609.26 329.67 606.44 334.76 604.68C340.95 602.56 344.35 601.83 345.03 602.5C345.59 603.05 345.83 604.17 345.56 605C345.29 605.83 340.44 610.14 334.79 614.59C329.13 619.05 320 625.77 314.5 629.54C309 633.3 300.68 639.12 296 642.46C291.32 645.81 285.25 649.84 282.5 651.41C279.75 652.99 274.59 656.36 271.03 658.89C267.48 661.43 262.98 664.5 261.03 665.71C259.09 666.93 256.38 668.42 255 669.03C253.63 669.63 251.38 671.14 250 672.39C248.63 673.63 242.78 677.99 237.02 682.07C231.25 686.16 224.19 691.98 221.32 695C218.44 698.02 214.71 702.3 213.01 704.5C211.32 706.7 209.96 708.73 210 709C210.04 709.27 208.02 712.2 205.52 715.5C203.01 718.8 200.96 722.17 200.96 723C200.97 724.25 201.93 724.37 206.74 723.71C209.91 723.27 213.57 722.15 214.88 721.21C216.19 720.27 218.46 718.83 219.93 718C221.4 717.17 223.48 715.68 224.55 714.68C225.62 713.69 228.07 711.79 230 710.46C231.93 709.14 235.07 706.97 237 705.65C238.93 704.33 245 700.33 250.5 696.76C256 693.19 262.07 689.47 264 688.49C265.93 687.51 270.09 684.98 273.25 682.85C276.41 680.73 279.56 678.99 280.25 678.98C280.94 678.97 282.4 678.1 283.5 677.05C284.6 676.01 287.98 674.17 291 672.97C294.02 671.78 298.41 669.49 300.75 667.9C303.09 666.3 305.34 664.99 305.75 664.97C306.16 664.95 311 662.7 316.5 659.96C322 657.23 327.18 654.56 328 654.04C328.82 653.52 336.48 649.76 345 645.69C353.52 641.61 364.55 636.55 369.5 634.45C374.45 632.34 379.18 630.04 380 629.33C380.82 628.63 382.18 628.03 383 628C383.82 627.97 389.23 625.88 395 623.37C400.77 620.85 409.32 617.08 414 614.99C418.68 612.9 428.35 608.87 435.5 606.04C442.65 603.21 450.08 600.04 452 598.98C453.92 597.93 456.4 597.05 457.5 597.03C458.6 597.01 463.1 595.64 467.5 593.98C471.9 592.33 475.93 590.53 476.45 589.99C476.97 589.44 478.55 589 479.95 589C481.35 589 488.13 587.04 495 584.64C501.88 582.23 508.96 579.53 510.75 578.64C512.54 577.74 514.56 577 515.25 577C515.94 577 528.09 573.18 542.25 568.5C556.41 563.83 568.79 560.01 569.75 560.02C570.71 560.04 574.42 558.96 578 557.62C581.58 556.29 586.64 554.93 589.25 554.6C592.15 554.23 594 554.39 594 555C594 555.55 592.99 556.61 591.75 557.36C590.51 558.11 586.58 560.36 583 562.36C579.42 564.37 574.7 567.06 572.5 568.35C570.3 569.64 565.35 572.4 561.5 574.49C557.65 576.58 551.8 579.86 548.5 581.79C545.2 583.71 541.91 585.89 541.18 586.64C540.45 587.39 539.21 588 538.43 588C537.64 588 527.89 592.78 516.75 598.63C505.61 604.48 494.81 610.1 492.75 611.13C490.69 612.16 488.55 613 488 613C487.45 613 485.31 614.09 483.25 615.43C481.19 616.77 476.58 619.01 473 620.41C469.42 621.82 465.6 623.79 464.5 624.8C463.4 625.81 461.15 626.98 459.5 627.39C457.85 627.8 452.9 629.75 448.5 631.72C444.1 633.69 432.85 639.14 423.5 643.83C414.15 648.51 399.86 655.64 391.75 659.67C383.64 663.7 376.44 667 375.75 667C375.06 667.01 372.93 667.99 371 669.2C369.07 670.4 364.13 672.89 360 674.72C355.88 676.56 350.48 679.36 348 680.96C345.52 682.55 340.35 685.04 336.5 686.49C332.65 687.93 327.25 690.37 324.5 691.91C321.75 693.44 317.93 695.31 316 696.07C314.07 696.83 306.43 700.74 299 704.77C291.57 708.8 284.71 712.98 283.75 714.05C282.79 715.12 280.43 716.67 278.5 717.5C276.17 718.5 275 719.67 275 721C275 722.61 275.53 722.92 277.75 722.59C279.26 722.37 282.07 721.58 284 720.84C285.93 720.11 288.63 718.7 290 717.71C291.38 716.73 295.65 715 299.5 713.87C303.35 712.74 307.06 712.08 307.75 712.41C308.44 712.73 309 713.9 309 715C309 716.33 307.07 718.27 303.25 720.79C300.09 722.87 294.8 726.42 291.5 728.68C288.2 730.94 284.94 733.51 284.25 734.39C283.56 735.28 283.23 736.67 283.5 737.5C283.81 738.42 284.86 738.85 286.25 738.6C287.49 738.38 289.85 737.87 291.5 737.47C293.15 737.07 296.75 735.72 299.5 734.48C302.25 733.24 306.98 731.54 310 730.7C313.02 729.86 316.85 728.73 318.5 728.19C320.15 727.65 323.75 726.49 326.5 725.62C329.25 724.76 332.29 724.03 333.25 724.02C334.21 724.01 336.01 723.35 337.25 722.56C338.49 721.76 343.55 720.38 348.5 719.48C353.45 718.57 358.29 717.42 359.25 716.92C360.21 716.41 363.81 715.54 367.25 714.99C370.69 714.43 375.07 713.55 377 713.03C378.93 712.52 384.77 710.94 390 709.53C395.23 708.11 401.75 705.86 404.5 704.52C407.25 703.18 414.72 698.12 421.09 693.29C427.47 688.46 436.44 681.35 441.03 677.5C445.62 673.65 450.98 668.93 452.94 667.02C454.9 665.1 457.25 663.08 458.17 662.52C459.08 661.96 462.91 659.39 466.67 656.81C470.43 654.23 476.99 649.17 481.25 645.56C485.82 641.7 489.62 639.21 490.5 639.5C491.33 639.77 492.01 640.56 492.03 641.25C492.04 641.94 490.93 644.08 489.56 646C488.18 647.92 485.84 651.3 484.35 653.5C482.87 655.7 477.79 661.38 473.08 666.13C468.36 670.87 463.38 675.34 462 676.05C460.63 676.76 456.35 679.68 452.5 682.54C448.65 685.4 442.69 689.37 439.25 691.37C435.32 693.65 432.79 695.84 432.43 697.25C432.12 698.49 432.01 699.64 432.18 699.81C432.36 699.98 437.9 699.39 444.5 698.5C451.1 697.61 463.02 695.75 471 694.37C478.98 692.99 487.75 692.01 490.5 692.18C494.14 692.41 495.5 692.91 495.5 694C495.5 694.94 489.36 698.55 479 703.69C469.92 708.2 460.48 712.67 458 713.62C455.52 714.57 449.23 717.24 444 719.55C438.77 721.86 428.65 725.86 421.5 728.44C414.35 731.02 406.7 733.95 404.5 734.95C402.3 735.95 395.32 739.1 389 741.95C382.68 744.79 376.82 747.48 376 747.92C375.14 748.38 374.63 749.75 374.82 751.11C374.99 752.43 373.94 756.65 372.47 760.5C371.01 764.35 369.39 768.4 368.87 769.5C368.34 770.6 365.57 774.67 362.71 778.54C359.84 782.41 356.03 787.36 354.24 789.54C352.45 791.72 350.97 793.95 350.96 794.5C350.95 795.05 351.87 796.4 353.02 797.5C354.95 799.34 355.4 799.39 358.81 798.1C360.84 797.33 372.85 791.6 385.5 785.37C398.15 779.15 412.55 772.69 417.5 771.02C422.45 769.35 427.51 767.98 428.75 767.99C430.08 768 431 768.61 431 769.5C431 770.33 428.83 773.14 426.18 775.75C423.53 778.36 419.26 782.19 416.68 784.25C414.11 786.31 412.15 788.56 412.33 789.25C412.51 789.94 413.52 790.64 414.58 790.82C415.64 790.99 423.7 788.68 432.5 785.69C441.3 782.7 453.67 778.13 460 775.54C466.33 772.94 475.33 768.76 480 766.24C484.67 763.72 493.67 758.5 500 754.64C506.33 750.78 514.65 745.31 518.5 742.48C522.35 739.65 532.92 732.46 542 726.51C551.08 720.56 561.42 713.8 565 711.5C568.58 709.19 574.09 705.66 577.25 703.65C580.41 701.64 588.29 697.36 594.75 694.14C605.35 688.84 606.66 687.89 608.17 684.39C609.09 682.25 610.33 678.36 610.92 675.75C611.51 673.14 612.85 661.89 613.89 650.75C615.05 638.25 616.39 629.07 617.39 626.75C618.37 624.47 619.68 623 620.75 622.99C622.36 622.99 622.44 623.94 621.75 634.99C621.17 644.34 621.28 646.99 622.25 646.97C622.94 646.96 625.86 642.01 628.75 635.97C631.98 629.22 634.58 625 635.5 625C636.65 625 637 626.28 637 630.5C637 633.52 636.21 639.59 635.25 643.97C634.29 648.35 633.84 652.29 634.27 652.72C634.69 653.15 635.44 653.05 635.93 652.5C636.42 651.95 638.38 647.45 640.28 642.5C642.18 637.55 646.29 628.1 649.41 621.5C652.53 614.9 655.75 608.38 656.58 607C657.41 605.63 659.98 600.55 662.29 595.73C664.61 590.91 667.06 586.97 667.75 586.98C668.51 586.99 668.83 587.89 668.56 589.25C668.31 590.49 667.59 594.65 666.95 598.5C666.31 602.35 664.73 610.67 663.43 617C662.13 623.33 660.89 630.08 660.66 632C660.44 633.92 659.75 637.3 659.12 639.5C658.5 641.7 655.71 653.63 652.93 666C650.15 678.38 646.59 695.02 645.02 703C643.45 710.98 641.65 721.1 641.02 725.5C640.39 729.9 640.13 734.17 640.44 735C640.75 735.83 640.56 737.06 640 737.75C639.45 738.44 639.34 739.69 639.75 740.53C640.39 741.83 641.31 741.63 646 739.18C649.02 737.6 654.2 734.92 657.5 733.22C660.8 731.51 667.55 728.25 672.5 725.95C677.45 723.66 685.55 719.81 690.5 717.38C695.45 714.96 699.95 713 700.5 713.03C701.05 713.06 702.17 712.39 703 711.54C703.83 710.69 705.85 709.78 707.5 709.52C709.15 709.26 712.75 707.46 715.5 705.52C718.25 703.58 721.06 702 721.75 702C722.44 702 726.61 700.09 739.05 693.5L745.78 673.25C749.75 661.27 753.01 652.99 753.75 653C754.44 653 755 653.34 755 653.75C755.01 654.16 754.52 659.45 753.93 665.5C753.33 671.55 752 681.45 750.97 687.5C749.93 693.55 747.5 705.92 745.55 715C743.61 724.08 740.89 735.55 739.5 740.5C738.11 745.45 736.84 750.85 736.67 752.5C736.5 754.15 736.09 755.95 735.76 756.5C735.42 757.05 734.86 759.08 734.52 761C734.17 762.92 733 768.1 731.92 772.5C730.83 776.9 729.52 782.08 728.99 784C728.46 785.92 728.04 788.63 728.04 790C728.05 791.38 727.71 792.88 727.28 793.34C726.85 793.8 726.44 794.93 726.38 795.84C726.31 796.75 725.86 799.87 725.38 802.77C724.53 807.82 724.59 808.03 726.75 808.02C727.99 808.01 730.46 806.9 732.25 805.56C734.04 804.22 739.33 801.82 744 800.23C748.67 798.63 754.3 797 756.5 796.6C758.7 796.19 763.65 794.29 767.5 792.37C772.64 789.79 775.69 787.41 779 783.35C781.48 780.32 784.71 776.41 786.2 774.67C787.68 772.93 791.42 765.2 794.51 757.5C797.61 749.8 803.21 736.98 806.96 729C810.72 721.02 815.86 709.89 818.39 704.25C820.93 698.61 827.87 683.99 833.83 671.75C839.78 659.51 848.78 642.64 853.83 634.25C858.87 625.86 865.99 613.71 869.65 607.25C873.31 600.79 877.08 593.7 878.02 591.5C879.34 588.43 880.29 587.5 882.12 587.5C884.11 587.5 884.55 586.93 884.82 584C885 582.08 885.22 578.4 885.32 575.83C885.42 573.27 885.84 570.79 886.25 570.33C886.66 569.87 887.23 569.73 887.52 570C887.8 570.27 888.75 574.33 889.61 579C890.77 585.22 891.05 590.99 890.66 600.5C890.37 607.65 889.38 617.77 888.46 623C887.54 628.23 885.02 639.7 882.85 648.5C880.69 657.3 876.42 671.92 873.38 681C870.34 690.08 863.56 708.3 858.3 721.5C853.05 734.7 847.68 747.52 846.38 750C845.07 752.48 844 756.19 844 758.25C844 760.31 844.45 762 845 762C845.55 762 846 761.55 846 761C846 760.45 846.56 759.44 847.25 758.75C847.94 758.06 850.27 755.25 852.43 752.5C854.58 749.75 859.08 744.66 862.43 741.19C865.77 737.72 869.85 734.2 871.5 733.37C873.15 732.53 874.85 732.22 875.27 732.67C875.7 733.13 874.16 737.33 871.86 742C869.56 746.67 866.18 752.86 864.34 755.75C862.5 758.64 861 761.34 861 761.75C861 762.16 859.36 765.2 857.36 768.5C855.36 771.8 851.02 779.67 847.73 786C844.43 792.33 839.63 801.55 837.07 806.5C834.5 811.45 831.86 816.96 831.2 818.75C830.42 820.86 830.35 822.18 831 822.5C831.55 822.77 833.46 821.35 835.25 819.33C837.04 817.31 839.29 814.95 840.26 814.08C841.23 813.21 842.02 812.05 842.02 811.5C842.02 810.95 843.56 808.92 845.43 807C847.31 805.08 850.83 801.48 853.25 799C855.68 796.52 860.21 792.02 863.32 789C867.23 785.2 869.32 783.81 870.08 784.5C870.86 785.21 870.31 787.36 868.15 792C866.49 795.58 859.87 807.27 853.44 818C847.01 828.73 841.14 838.17 840.4 839C839.66 839.83 839.04 840.84 839.03 841.25C839.01 841.66 843.73 842 860 842L866.53 834.25C870.12 829.99 873.05 825.94 873.03 825.25C873.01 824.56 873.34 824.01 873.75 824.03C874.16 824.05 877.54 820.45 881.25 816.03C884.96 811.61 888 807.55 888 807C888 806.45 888.45 806 889 806C889.55 806 894.26 801.16 899.46 795.25C904.66 789.34 911.92 781.13 915.6 777C919.28 772.88 927.19 764.33 933.18 758C939.16 751.67 944.38 746.2 944.78 745.83C945.18 745.47 949.33 741.59 954 737.22C958.67 732.84 966.55 725.44 971.5 720.77C976.45 716.09 984.78 708.22 990 703.27C995.22 698.32 1002.56 691.62 1006.3 688.39C1010.04 685.15 1016.11 679.89 1019.8 676.7C1024.28 672.83 1026.83 671.24 1027.5 671.91C1028.17 672.58 1027.14 674.67 1024.42 678.21C1022.18 681.12 1016.51 688.67 1011.83 695C1007.15 701.33 1002.91 707.27 1002.41 708.22C1001.91 709.17 999.81 711.87 997.73 714.22C995.66 716.57 990.13 723.45 985.43 729.5C980.74 735.55 975.36 742.3 973.49 744.5C971.61 746.7 967.56 751.42 964.5 755C961.43 758.58 958.94 761.84 958.96 762.25C958.98 762.66 957.57 764.24 955.82 765.75C954.08 767.26 948.34 773.67 943.07 780C937.8 786.33 932.03 793.41 930.24 795.75C928.46 798.09 927 800.45 927 801C927 801.55 926.55 802 926 802C925.45 802 922.64 804.97 919.75 808.6C916.86 812.23 913.02 816.61 911.22 818.35C909.42 820.08 907.95 821.84 907.97 822.25C907.99 822.66 905.5 825.81 902.44 829.25C899.38 832.69 896.01 836.96 893 842L936 842L940.75 837.15C943.54 834.3 948.04 827.6 951.66 820.9C955.05 814.63 958.76 807.14 962 799L959 796.5C957.35 795.13 956 793.55 956 793C956 792.45 956.9 792 958 792C959.1 792 960.22 792.45 960.5 793C960.78 793.55 961.9 794 963 794C964.1 794 965.3 793.21 965.67 792.25C966.04 791.29 967.84 788.14 969.67 785.25C971.5 782.36 975.06 775.84 977.57 770.75C981.58 762.63 982.32 761.68 983.57 763C984.82 764.3 984.8 765.42 983.42 771.5C982.55 775.35 981.43 779.29 980.92 780.25C980.41 781.21 980 782.67 980 783.5C980 784.33 978.76 787.69 977.25 790.97C975.74 794.26 974.72 797.34 975 797.82C975.28 798.3 978.88 799.69 990.5 803.12L996.25 800.06C999.41 798.38 1002.45 797.23 1003 797.5C1003.58 797.79 1003.17 799.25 1002 801C1000.9 802.65 1000 804.45 1000 805C1000 805.55 1001.69 806.69 1003.75 807.52C1005.81 808.36 1008.17 809.02 1009 808.99C1009.83 808.96 1012.19 810.08 1014.25 811.47C1016.31 812.86 1018.56 813.99 1019.25 813.98C1019.94 813.97 1024.19 815.21 1028.7 816.73C1033.21 818.25 1037.07 819.27 1037.26 819C1037.46 818.73 1042.04 811.52 1047.44 803C1052.84 794.48 1059.23 784.58 1061.63 781C1064.04 777.42 1065.99 774.05 1065.97 773.5C1065.95 772.95 1062.91 770.49 1059.22 768.03C1055.52 765.57 1046.88 759.3 1040 754.1C1033.13 748.9 1025.74 743.26 1023.6 741.57C1021.45 739.88 1017.06 736.02 1013.84 733C1010.62 729.98 1008.22 727.27 1008.5 727C1008.79 726.73 1012.05 727.77 1015.76 729.33C1019.47 730.88 1023.17 732.58 1024 733.1C1024.83 733.62 1027.53 734.98 1030 736.11C1032.47 737.24 1036.53 739.09 1039 740.22C1041.47 741.35 1046.42 743.6 1050 745.23C1053.58 746.86 1058.53 749.09 1061 750.19C1063.47 751.3 1068.42 753.56 1072 755.24C1077.21 757.67 1078.85 758.05 1080.25 757.14C1081.21 756.51 1082.24 756.34 1082.53 756.75C1082.82 757.16 1083.03 758.17 1083 759C1082.97 759.83 1085.1 761.59 1087.73 762.91C1090.35 764.24 1094.86 766.83 1097.75 768.66C1100.64 770.5 1103.45 772 1104 772C1104.55 772 1108.83 774.02 1122 781L1124.02 778.75C1125.13 777.51 1126.03 776.16 1126.02 775.75C1126.01 775.34 1127.13 773.76 1128.51 772.25C1129.89 770.74 1132.03 768.35 1133.26 766.95C1134.49 765.55 1137.08 762.45 1139 760.06C1140.92 757.66 1142.5 755.21 1142.5 754.6C1142.5 754 1139.35 751.39 1135.5 748.81C1131.65 746.23 1123.89 739.71 1118.27 734.31C1111.27 727.61 1108.03 723.79 1108.02 722.25C1108.01 720.91 1108.61 720 1109.5 720C1110.33 720 1114.71 721.73 1119.25 723.86C1123.79 725.98 1131.78 730.31 1137 733.48C1142.22 736.66 1147.96 740.1 1153 743L1157.5 738.5C1159.97 736.02 1162 733.33 1162 732.5C1162 731.67 1162.58 730.66 1163.29 730.25C1164 729.84 1166.58 727.15 1169.04 724.27C1171.49 721.39 1173.84 719.26 1174.25 719.52C1174.66 719.78 1174.06 722.36 1172.9 725.25C1171.75 728.14 1169.73 732.52 1168.4 735C1167.08 737.48 1166 740.06 1166 740.75C1166 741.44 1165.33 742.67 1164.5 743.5C1163.67 744.33 1163.01 746.01 1163.01 747.25C1163.02 749.01 1165.69 751.28 1175.26 757.66C1181.99 762.15 1191.1 767.95 1195.5 770.54C1199.9 773.14 1206.42 776.76 1210 778.6C1213.58 780.44 1217.17 781.96 1218 781.97C1218.83 781.98 1225.14 776.48 1232.04 769.74C1238.94 763.01 1245.31 756.38 1246.2 755C1247.3 753.29 1248.15 752.82 1248.89 753.5C1249.64 754.2 1248.26 757.93 1244.27 766C1241.14 772.33 1238.23 777.95 1237.81 778.5C1237.38 779.05 1235.9 780.96 1234.52 782.75C1233.13 784.54 1232 786.45 1232 787C1232 787.55 1232.11 788.01 1232.25 788.01C1232.39 788.02 1237.9 789.83 1244.5 792.02C1251.1 794.21 1257.74 796.01 1259.25 796C1260.77 796 1262.01 795.44 1262.03 794.75C1262.04 794.06 1259.62 791.7 1256.64 789.5C1253.66 787.3 1250.26 784.15 1249.09 782.5C1247.57 780.36 1247.33 779.41 1248.23 779.18C1248.93 779 1252.88 779.83 1257 781.02C1261.13 782.2 1268.1 784.89 1272.5 786.98C1276.9 789.07 1286.13 793.36 1293 796.52C1303.69 801.42 1305.83 802.09 1307.75 801.13C1308.99 800.51 1310.02 799.66 1310.03 799.25C1310.05 798.84 1307.33 795.13 1303.98 791C1300.63 786.88 1296.28 780.13 1294.31 776C1292.34 771.88 1290.76 767.38 1290.81 766C1290.89 763.81 1289.88 763.04 1282.7 759.79C1278.19 757.75 1272.03 755.12 1269 753.94C1265.97 752.77 1258.1 749.86 1251.5 747.47C1244.9 745.08 1235.22 741.37 1230 739.21C1224.78 737.06 1215.21 732.75 1208.75 729.65C1202.29 726.54 1197 723.55 1197 723C1197 722.45 1198.24 721.76 1199.75 721.46C1201.26 721.16 1207.22 721.63 1213 722.49C1218.78 723.36 1226.65 724.49 1230.5 725C1234.35 725.52 1239.41 725.95 1241.75 725.97C1245.5 726 1245.89 725.79 1245.05 724.25C1244.52 723.29 1241.87 721.15 1239.14 719.5C1236.42 717.85 1230.43 713.95 1225.84 710.84C1221.25 707.73 1215.17 702.78 1212.33 699.84C1209.48 696.9 1205.31 692.02 1203.07 689C1200.82 685.98 1198.99 682.94 1198.99 682.25C1199 681.56 1199.67 681 1200.5 681C1201.33 681 1204.36 682.94 1207.25 685.31C1210.14 687.69 1214.75 691.14 1217.5 692.98C1220.25 694.83 1227.84 700.65 1234.37 705.92C1240.9 711.19 1249.68 717.98 1253.88 721C1258.07 724.02 1262.63 727.23 1264 728.13C1265.38 729.03 1269.88 730.73 1274 731.91C1278.13 733.1 1282.85 734.49 1284.5 735.02C1286.15 735.54 1290.88 736.61 1295 737.4C1299.13 738.2 1305.88 739.48 1310 740.26C1314.13 741.04 1318.17 742.05 1319 742.52C1319.83 742.99 1321.85 743.7 1323.5 744.1C1325.15 744.5 1330.55 745.93 1335.5 747.28C1340.45 748.64 1346.86 750.7 1349.75 751.87C1352.64 753.04 1356.35 754 1358 754C1360 754 1361 753.5 1361 752.5C1361 751.67 1356.5 748.08 1351 744.5C1345.5 740.92 1341 737.33 1341 736.5C1341 735.67 1341.56 734.81 1342.25 734.57C1342.94 734.33 1345.3 734.62 1347.5 735.2C1349.7 735.79 1354.2 737.56 1357.5 739.14C1360.8 740.71 1364.29 742 1365.25 742C1366.21 742 1367.01 741.44 1367.02 740.75C1367.03 740.06 1365.46 738.71 1363.52 737.75C1361.58 736.79 1360.02 735.66 1360.04 735.25C1360.06 734.84 1353.87 731.41 1346.29 727.63C1338.71 723.86 1330.7 719.85 1328.5 718.73C1326.3 717.61 1322.92 716.15 1321 715.48C1319.08 714.81 1312.78 712 1307 709.25C1301.22 706.49 1292 702.11 1286.5 699.52C1281 696.92 1274.36 693.94 1271.75 692.9C1269.14 691.85 1265.99 690.35 1264.75 689.55C1263.51 688.76 1254.74 684.48 1245.25 680.05C1235.76 675.62 1227.44 671.99 1226.75 671.98C1226.06 671.96 1221.67 670.11 1217 667.86C1212.33 665.61 1206.03 662.63 1203 661.24C1199.97 659.85 1188.72 654.35 1178 649.01C1167.28 643.68 1155.35 637.61 1151.5 635.53C1147.65 633.44 1138.76 628.64 1131.75 624.87C1124.74 621.09 1118.99 617.44 1118.98 616.75C1118.96 615.85 1119.87 615.71 1122.23 616.26C1124.03 616.68 1128.42 617.87 1132 618.91C1135.58 619.95 1143.67 622.26 1150 624.04C1156.33 625.82 1164.88 628.41 1169 629.79C1173.13 631.17 1177.85 632.64 1179.5 633.06C1181.15 633.48 1186.33 635.19 1191 636.86C1195.67 638.53 1201.97 640.58 1205 641.42C1208.03 642.26 1213.42 643.89 1217 645.04C1220.58 646.2 1230.03 649.64 1238 652.7C1245.97 655.75 1258.24 660.67 1265.25 663.62C1272.26 666.58 1278.22 669 1278.5 669C1278.78 669 1284.29 671.3 1290.75 674.1C1297.21 676.91 1305.42 680.56 1309 682.22C1312.58 683.87 1317.75 686.11 1320.5 687.19C1323.25 688.27 1326.17 689.71 1327 690.39C1327.83 691.07 1331.88 693.13 1336 694.98C1340.13 696.82 1345.75 699.56 1348.5 701.06C1351.25 702.57 1354.63 704.14 1356 704.55C1357.38 704.96 1359.63 706.06 1361 707C1362.38 707.93 1366.2 710.26 1369.5 712.18C1372.8 714.11 1378.42 717.35 1382 719.4C1385.58 721.45 1391.04 724.79 1394.14 726.81C1397.25 728.84 1403.32 732.9 1407.64 735.83C1412.67 739.24 1417.03 741.4 1419.77 741.83C1423.2 742.37 1424.02 742.21 1423.99 741C1423.97 740.17 1423.04 738.38 1421.93 737C1420.81 735.63 1418.86 732.92 1417.6 731C1416.33 729.08 1412.87 724.85 1409.9 721.61C1406.93 718.37 1402.25 714.22 1399.5 712.39C1396.75 710.56 1390.45 706.4 1385.5 703.13C1380.55 699.87 1373.58 695.35 1370 693.1C1366.42 690.84 1355.85 683.99 1346.5 677.87C1337.15 671.76 1325.67 663.95 1321 660.51C1316.33 657.08 1312.16 653.53 1311.75 652.63C1311.24 651.52 1311.56 650.8 1312.75 650.38C1313.72 650.03 1319.21 651.43 1325 653.49C1330.78 655.55 1337.08 657.91 1339 658.75C1340.92 659.58 1345.65 661.76 1349.5 663.59C1353.35 665.42 1358.08 667.25 1360 667.66C1363.39 668.38 1363.45 668.34 1362 666.37C1361.17 665.25 1358.92 662.99 1357 661.34C1355.08 659.7 1349.45 655.33 1344.5 651.65C1339.55 647.96 1333.73 643.49 1331.57 641.72C1329.4 639.95 1324 635.93 1319.57 632.79C1315.13 629.65 1308.13 624.76 1304 621.92C1299.88 619.09 1293.69 614.57 1290.25 611.88C1286.81 609.2 1284 606.33 1284 605.5C1284 604.45 1285.06 604 1287.5 604C1289.42 604 1294.49 605.3 1298.75 606.89C1303.01 608.48 1310.33 611.64 1315 613.91C1319.67 616.18 1323.84 618.03 1324.25 618.02C1324.66 618.01 1324.21 616.63 1323.25 614.95C1322.29 613.28 1314.3 605.44 1305.5 597.54C1296.7 589.64 1280.7 574.25 1269.95 563.34C1259.2 552.43 1247.01 539.45 1242.88 534.5C1238.74 529.55 1231.2 519.65 1226.13 512.5C1221.06 505.35 1214.51 494.77 1211.57 489C1208.63 483.23 1205.03 474.45 1203.57 469.5C1202.11 464.55 1201.16 460.27 1201.45 460C1201.74 459.73 1202.66 459.84 1203.49 460.25C1204.32 460.66 1205.21 462.24 1205.47 463.75C1205.73 465.26 1206.69 467.18 1207.59 468C1208.5 468.82 1210.05 471.07 1211.04 473C1212.03 474.93 1214.78 478.83 1217.17 481.67C1219.55 484.52 1223.08 489.09 1225 491.83C1226.92 494.58 1229.63 497.57 1231 498.49C1232.38 499.41 1234.28 502.04 1235.23 504.33C1236.18 506.62 1238.79 510.75 1241.02 513.5C1243.25 516.25 1248.5 523 1252.69 528.5C1256.88 534 1264.03 542.77 1268.57 548C1273.11 553.23 1283.73 564.32 1292.17 572.66C1300.6 581 1309.78 589.78 1312.57 592.16C1315.36 594.55 1326.38 604.15 1337.07 613.5C1347.76 622.85 1361.85 635 1368.38 640.5C1374.91 646 1382.79 652.45 1385.88 654.84C1389.54 657.68 1391.76 658.81 1392.25 658.09C1392.7 657.44 1388.86 652.65 1382.76 646.25C1377.13 640.34 1367.79 630.85 1362.01 625.16C1356.23 619.48 1351.17 614.53 1350.76 614.16C1350.35 613.8 1346.3 609.42 1341.76 604.44C1337.22 599.45 1323.6 585.71 1311.5 573.9C1299.4 562.08 1284.1 547.29 1277.5 541.03C1270.9 534.76 1257.9 521.95 1248.61 512.56C1239.32 503.18 1227.74 490.89 1222.86 485.25C1217.99 479.61 1214 474.55 1214 474C1214 473.45 1214.56 473.01 1215.25 473.02C1215.94 473.03 1218.53 474.73 1221 476.8C1223.47 478.87 1230 483.76 1235.5 487.65C1241 491.55 1251.58 498.73 1259 503.62C1266.42 508.5 1280.38 518.77 1290 526.42C1299.63 534.08 1314.25 546.04 1322.5 553C1330.75 559.97 1342.04 569.45 1347.6 574.08C1353.15 578.71 1362.15 586.71 1367.6 591.85C1375.53 599.35 1379.19 602 1386 605.21C1390.67 607.42 1396.53 610.14 1399 611.27C1401.47 612.41 1405.75 614.82 1408.5 616.64C1411.25 618.46 1413.95 619.96 1414.5 619.97C1415.05 619.98 1420.9 623.82 1427.5 628.49C1435.52 634.17 1440.41 636.99 1442.25 636.99C1443.76 637 1445.73 637.34 1446.63 637.75C1447.52 638.16 1449.32 640.86 1450.63 643.75C1451.93 646.64 1454.15 649.79 1455.56 650.75C1456.97 651.71 1462.15 655.99 1467.06 660.25C1471.98 664.51 1476.34 668.01 1476.75 668.02C1477.16 668.03 1479.53 667.35 1482 666.5C1486.08 665.1 1486.97 665.11 1491.5 666.57C1494.25 667.45 1497.06 667.91 1497.75 667.59C1498.44 667.26 1499.01 666.44 1499.01 665.75C1499.02 665.06 1495.84 660.9 1491.93 656.5C1488.03 652.1 1483.83 647.6 1482.59 646.5C1481.35 645.4 1479.2 642.92 1477.81 641C1476.43 639.08 1474.35 635.7 1473.21 633.5C1472.06 631.3 1468.28 625.83 1464.81 621.36C1461.34 616.88 1456.25 610.49 1453.5 607.16C1450.75 603.84 1446.25 598.13 1443.5 594.48C1440.75 590.83 1436.47 585.19 1434 581.96C1431.53 578.73 1426.8 572.66 1423.5 568.48C1420.2 564.31 1414.76 557.65 1411.4 553.69C1408.05 549.74 1399.48 538.85 1392.35 529.5C1385.22 520.15 1376.66 508.45 1373.33 503.5C1369.99 498.55 1365.19 490.9 1362.66 486.5C1360.12 482.1 1358.04 477.94 1358.02 477.25C1358.01 476.56 1358.34 476.01 1358.75 476.01C1359.16 476.02 1366.04 482.88 1374.04 491.26C1382.04 499.64 1389.51 507.85 1390.65 509.5C1391.78 511.15 1395.59 514.78 1399.11 517.57C1402.62 520.36 1409.1 525.02 1413.5 527.92C1417.9 530.83 1422.85 533.82 1424.5 534.58C1426.15 535.33 1428.84 536.97 1430.49 538.22C1432.13 539.48 1437.74 543.88 1442.96 548C1448.18 552.13 1455.39 558.3 1458.98 561.72C1462.56 565.13 1471.58 573.83 1479 581.05C1486.42 588.26 1493.63 594.75 1495 595.46C1496.38 596.17 1499.12 598.72 1501.1 601.13C1503.08 603.53 1506.31 606.63 1508.28 608C1510.25 609.38 1512.68 611.71 1513.68 613.2C1514.68 614.68 1516.85 616.66 1518.5 617.58C1520.15 618.51 1523.12 620.9 1525.1 622.89C1527.08 624.87 1533.15 630.81 1538.6 636.09C1545.07 642.35 1551.62 647.53 1557.5 651.03C1562.45 653.98 1568.45 657.99 1570.84 659.95C1573.23 661.9 1577.84 666.09 1581.09 669.25C1584.34 672.41 1587.25 674.89 1587.55 674.75C1587.85 674.61 1584.66 665.95 1580.46 655.5C1576.26 645.05 1569.17 628.85 1564.72 619.5C1560.26 610.15 1553.04 595.52 1548.68 587C1544.32 578.48 1538.48 567.45 1535.71 562.5C1532.93 557.55 1529.34 551.25 1527.72 548.5C1526.11 545.75 1519.99 535.92 1514.14 526.65C1508.29 517.39 1501.92 507.94 1500 505.65C1498.08 503.37 1495.7 499.93 1494.72 498C1493.74 496.07 1489.02 489.02 1484.22 482.32C1479.42 475.62 1466.5 458.58 1455.5 444.45C1444.5 430.32 1433.03 415.29 1430 411.05C1426.97 406.82 1423.01 401.36 1421.19 398.93C1419.36 396.49 1414.97 390.45 1411.42 385.5C1407.88 380.55 1405.43 376.39 1405.99 376.25C1406.54 376.11 1408.69 377.23 1410.75 378.73C1412.81 380.23 1416.75 383.29 1419.5 385.53C1422.25 387.77 1425.47 390.25 1426.64 391.05C1427.82 391.85 1433.2 396.1 1438.58 400.5C1443.97 404.9 1453.02 412.89 1458.69 418.25C1464.36 423.61 1469.22 428 1469.5 428C1469.78 428 1467.09 423.84 1463.53 418.75C1459.96 413.66 1455.8 407.15 1454.28 404.29C1452.75 401.42 1451.84 398.72 1452.26 398.29C1452.68 397.85 1454.26 398.12 1455.76 398.87C1457.27 399.62 1462.21 403.34 1466.75 407.12C1471.29 410.9 1475.24 413.89 1475.54 413.75C1475.84 413.61 1473.48 408.23 1470.29 401.8C1467.11 395.36 1464.72 389.84 1465 389.52C1465.28 389.21 1466.63 389.42 1468 390C1469.38 390.59 1472.37 393.86 1474.65 397.28C1476.94 400.7 1481.94 408.9 1485.78 415.5C1489.62 422.1 1494.46 429.75 1496.54 432.5C1498.61 435.25 1502.21 439.52 1504.52 442C1506.83 444.48 1511.85 449.88 1515.66 454C1519.47 458.13 1523.92 463.3 1525.53 465.5C1527.15 467.7 1532.2 474 1536.76 479.5C1541.33 485 1547.63 492.58 1550.78 496.35C1553.93 500.12 1560.1 507.29 1564.5 512.28C1568.9 517.27 1576.03 525.44 1580.34 530.43C1584.65 535.42 1589.83 541.28 1591.84 543.45C1593.85 545.62 1597.53 550.06 1600 553.31C1602.47 556.56 1605.97 561.09 1607.77 563.36C1609.56 565.64 1611.93 568.96 1613.02 570.75C1614.11 572.54 1615.34 573.98 1615.75 573.96C1616.16 573.94 1618.14 576.53 1620.15 579.71C1622.16 582.9 1627.36 590 1631.71 595.5C1636.05 601 1640.71 606.23 1644.5 608.74L1645.5 703.81L1655.54 712.66C1661.06 717.52 1677.04 731.45 1691.04 743.62C1705.04 755.78 1717.85 766.85 1722.5 770.7L1715 779.12C1710.88 783.75 1703.45 792.22 1698.5 797.94C1693.55 803.66 1686.72 811.53 1683.32 815.42C1679.35 819.97 1677.65 822.59 1678.57 822.75C1679.69 822.95 1680 825.05 1680 842L1695 842L1695 1011L831 1011L742 1054C693.05 1077.65 652.66 1097.01 652.25 1097.02C651.84 1097.04 642.05 1077.67 609.5 1010.93L-54 1011L-54 842L-28.5 842C-8.58 842 -3.08 841.73 -3.35 840.75C-3.54 840.06 -12.39 825.77 -23.01 809C-33.64 792.23 -46.9 771.3 -52.48 762.5C-58.07 753.7 -67.62 738.63 -84.77 711.5L-85.38 692.5C-85.71 682.05 -86.27 648.08 -86.61 617C-86.95 585.92 -86.96 559.04 -86.62 557.25C-86.22 555.18 -85.55 554.19 -84.75 554.53C-84.03 554.84 -81.16 552.19 -78 548.29C-74.97 544.56 -71.25 539.71 -69.72 537.51C-68.2 535.3 -64.49 530.13 -61.48 526C-58.47 521.88 -55.39 517.15 -54.64 515.5C-53.88 513.85 -52.08 511.49 -50.63 510.25C-49.18 509.01 -47.98 507.44 -47.96 506.75C-47.94 506.06 -46.26 503.64 -44.21 501.36C-42.17 499.09 -39.6 495.85 -38.5 494.18C-37.4 492.5 -34.25 488.13 -31.5 484.46C-28.75 480.78 -25 476.14 -23.17 474.14C-21.33 472.14 -18.41 468.57 -16.67 466.21C-14.92 463.84 -6.84 454.17 1.3 444.71C9.44 435.24 18.25 425.02 20.88 422C23.52 418.98 26.28 415.38 27.02 414C27.77 412.63 29.53 410.54 30.94 409.37C32.35 408.2 35.3 404.6 37.5 401.37C39.69 398.14 42.01 395.05 42.65 394.5C43.29 393.95 47.36 389 51.7 383.5C56.04 378 61.59 370.8 64.04 367.5C66.49 364.2 72.69 356.77 77.82 351C82.96 345.23 89.38 338.02 92.11 335C94.83 331.98 99.23 326.35 101.89 322.5C104.56 318.65 110.98 307.85 116.16 298.5C121.35 289.15 127.15 279.15 129.05 276.27C131.01 273.3 134.12 270.18 136.25 269.02C138.48 267.82 140.2 267.41 140.5 268C140.78 268.55 137.51 275.98 133.25 284.51C128.99 293.03 125.84 300.23 126.25 300.51C126.66 300.78 129.81 298.56 133.25 295.58C136.69 292.59 142.88 287.39 147 284.02C151.13 280.65 155.18 278.04 156 278.22C156.96 278.43 157.38 279.44 157.17 281.02C156.99 282.39 155.76 285.07 154.44 287C153.11 288.93 152.02 290.95 152.01 291.5C152 292.05 150.21 294.98 148.03 298C145.85 301.02 142.85 305.52 141.37 308C139.88 310.48 137.73 313.51 136.58 314.75C135.44 315.98 134.84 317.22 135.25 317.5C135.66 317.77 142.41 311.81 150.25 304.25C158.09 296.69 169.85 286 176.38 280.5C182.91 275 189.21 269.85 190.38 269.05C191.54 268.25 196.3 264.42 200.94 260.55C205.59 256.67 210.75 252.49 212.42 251.25C214.09 250.01 215.8 249 216.23 249ZM-29.29 616L-43.87 644.5C-41.9 652.25 -40.76 655.63 -40.08 657C-39.33 658.51 -38.52 659.1 -38.04 658.5C-37.6 657.95 -35 652.33 -32.27 646C-29.54 639.67 -26.73 632.7 -26.03 630.5C-25.33 628.3 -23.93 625.6 -22.93 624.5C-21.92 623.4 -20.38 620.48 -19.5 618C-18.62 615.52 -16.35 607.31 -14.45 599.75C-12.55 592.19 -11 585.77 -11 585.5C-11 585.23 -11.4 585 -11.89 585C-12.38 585 -13.21 585.56 -13.74 586.25C-14.28 586.94 -21.27 600.33 -29.29 616ZM865 643.5C861.25 653.95 855.19 670.15 851.53 679.5C847.88 688.85 841.26 706.17 836.82 718C832.37 729.83 826.77 745.35 824.36 752.5C821.96 759.65 819.99 766.4 819.99 767.5C819.99 768.6 819.16 770.85 818.14 772.5C817.12 774.15 813.47 783.83 810.03 794C806.58 804.17 803.16 813.63 802.41 815C801.67 816.38 801.27 817.84 801.53 818.25C801.79 818.66 801.33 820.35 800.5 822C799.67 823.65 799.23 825.45 799.5 826C799.77 826.55 800.45 827 801 827C801.55 827 803.74 823.29 805.87 818.75C808.01 814.21 811.44 806.9 813.5 802.5C815.56 798.1 820.4 787.52 824.24 779C828.09 770.48 834.13 756.75 837.67 748.5C841.2 740.25 845.17 731.02 846.48 728C847.79 724.98 850.95 716.88 853.51 710C856.06 703.13 860.1 691.2 862.49 683.5C864.87 675.8 867.75 665.45 868.88 660.5C870.01 655.55 872.13 646.1 873.59 639.5C875.04 632.9 876.18 625.36 876.12 622.75C876.05 620.14 876.34 618.01 876.75 618.03C877.16 618.05 878.04 616.13 878.69 613.78C879.35 611.43 880.16 608.15 880.49 606.5C880.82 604.85 881.19 602.71 881.31 601.75C881.42 600.79 881.05 600 880.47 600C879.9 600 877.72 605.51 875.62 612.25C873.53 618.99 868.75 633.05 865 643.5ZM1587.53 636C1587.92 638.48 1589.33 644.33 1590.68 649C1592.02 653.67 1594.03 659.08 1595.15 661C1596.27 662.92 1598.81 668.33 1600.79 673C1602.77 677.67 1605.09 682.78 1605.94 684.35C1606.8 685.91 1607.95 687.18 1608.5 687.17C1609.05 687.17 1610.17 685.05 1611 682.48L1612.5 677.8C1605.38 664.39 1600.41 655.1 1596.87 648.5C1593.33 641.9 1589.62 635.38 1588.63 634L1586.83 631.5M-69.46 699.29C-71.09 701.8 -72.33 704.34 -72.21 704.93C-72.1 705.52 -72.67 707.35 -73.5 709C-74.33 710.65 -74.89 712.21 -74.75 712.46C-74.61 712.71 -71.91 710.46 -68.75 707.46C-65.59 704.46 -62.98 701.44 -62.96 700.75C-62.93 700.06 -63.72 698.43 -64.71 697.12L-66.5 694.73M724.25 710.56C721.36 712.45 719 714.45 719 715C719 715.55 715.51 718.56 711.25 721.69C706.99 724.82 699 731.02 693.5 735.47C688 739.93 680.44 745.58 676.71 748.03C672.98 750.49 669.94 752.84 669.96 753.25C669.98 753.66 668.88 754.23 667.5 754.5C666.13 754.77 662.24 756.91 658.88 759.25C655.51 761.59 652.02 763.96 651.13 764.51C650.23 765.07 646.58 767.17 643 769.17C639.42 771.18 635.96 773.43 635.3 774.16C634.64 774.9 633.66 778.65 633.13 782.5C632.59 786.35 631.66 797.6 631.05 807.5C630.45 817.4 629.85 829.21 629.73 833.75L629.5 842C645.59 842 648.09 841.54 653.75 839.18C657.46 837.62 664.44 834.59 669.25 832.43C677.81 828.59 678.02 828.41 678.66 824.5C679.02 822.3 679.81 819.6 680.41 818.5C681.02 817.4 681.96 815.83 682.51 815C683.05 814.17 684.54 810.8 685.8 807.5C687.07 804.2 689.44 797.67 691.06 793C692.68 788.33 694.86 782.7 695.9 780.5C696.94 778.3 698.81 773.8 700.06 770.5C701.31 767.2 704.12 760.67 706.31 756C708.5 751.33 710.68 747.39 711.15 747.25C711.62 747.11 711.99 746.44 711.97 745.75C711.95 745.06 713.16 742.25 714.65 739.5C716.15 736.75 718.64 732.92 720.19 731C721.74 729.08 723.01 726.94 723.01 726.25C723 725.56 723.45 725 724 725C724.55 725 725 724.55 725 724C725 723.45 726.47 720.86 728.26 718.25C730.06 715.64 732.12 711.92 732.85 710C733.57 708.08 734.75 705.04 735.47 703.25C736.18 701.46 736.68 700 736.58 700C736.47 700 734.84 701.6 732.94 703.56C731.05 705.52 727.14 708.67 724.25 710.56ZM569 730.39C561.58 735.53 551.67 741.97 547 744.71C542.33 747.44 533.77 752.19 528 755.25C522.23 758.32 510.75 763.52 502.5 766.81C494.25 770.1 483 774.25 477.5 776.03C472 777.81 465.7 780.16 463.5 781.26C461.3 782.36 456.22 785.57 452.21 788.38C448.19 791.2 444.93 793.84 444.96 794.25C444.98 794.66 442.64 796.18 439.75 797.63C436.86 799.08 431.91 802.23 428.75 804.63C425.59 807.03 420.64 810.36 417.75 812.02C414.86 813.67 409.8 816.95 406.5 819.3C402.67 822.03 400.41 824.38 400.25 825.79C400.04 827.63 400.5 828 403 828C404.65 828 407.69 827.27 409.75 826.37C411.81 825.47 415.3 824.39 417.5 823.96C419.7 823.53 423.52 822.41 426 821.48C428.48 820.54 438.83 816.85 449 813.28C459.17 809.71 471.1 805.7 475.5 804.37C479.9 803.05 484.96 801.97 486.75 801.98C488.54 801.99 490.01 802.34 490.02 802.75C490.03 803.16 488.8 804.69 487.27 806.15C485.75 807.6 480.79 811.31 476.25 814.4C471.71 817.48 467.55 820 467 820C466.45 820 466 820.45 466 821C466 821.55 467.01 822 468.25 822.01C469.49 822.02 474.33 820.73 479 819.15C483.67 817.57 495.38 813.11 505 809.24C514.63 805.37 528.8 799.41 536.5 796.01C544.2 792.6 557.7 786.22 566.5 781.83C575.3 777.44 582.95 773.49 583.5 773.04C584.05 772.59 585.4 769.26 586.5 765.63C587.6 761.99 588.16 758.68 587.75 758.26C587.33 757.84 587.63 756.83 588.41 756C589.19 755.17 590.51 751.35 591.33 747.5C592.16 743.65 594.43 734.42 596.39 727C598.34 719.58 600.2 711.48 600.52 709C600.84 706.52 601.29 704.16 601.52 703.75C601.74 703.34 601.83 703.02 601.71 703.04C601.6 703.07 597.23 707.13 592 712.07C586.77 717.01 576.42 725.25 569 730.39ZM1146.22 777.41C1144.72 780.1 1142.49 783.37 1141.25 784.66C1140.01 785.94 1138.99 787.56 1138.97 788.25C1138.96 788.94 1143.35 791.6 1148.72 794.17C1154.1 796.74 1162.78 800.6 1168 802.76C1173.22 804.91 1180.08 807.76 1183.24 809.09L1188.98 811.5C1197.13 803.65 1200.2 800.95 1201.05 800.44C1201.91 799.92 1203.55 797.92 1204.69 796C1205.84 794.08 1207.95 791.71 1209.39 790.75C1210.82 789.79 1212 788.33 1212 787.5C1212 786.57 1210.02 785.38 1206.75 784.35C1203.86 783.44 1196.33 780.7 1190 778.27C1183.67 775.83 1173.55 771.18 1167.5 767.94C1161.45 764.7 1156.01 762.03 1155.42 762.02C1154.82 762.01 1153.12 764.36 1151.64 767.25C1150.15 770.14 1147.71 774.71 1146.22 777.41ZM1072.82 787.5C1071.48 790.25 1067.31 797.45 1063.57 803.5C1059.82 809.55 1054.99 816.75 1052.84 819.5C1050.69 822.25 1048.94 824.84 1048.96 825.25C1048.98 825.66 1052.26 827.3 1056.25 828.9C1060.24 830.49 1066.42 832.96 1070 834.38C1073.58 835.81 1077.06 836.98 1077.75 836.99C1078.44 836.99 1081.85 833.51 1085.34 829.25C1088.83 824.99 1094.97 817 1098.99 811.5C1103 806 1107.13 800.71 1108.15 799.75C1109.17 798.79 1110 797.55 1110 797C1110 796.45 1102.8 792.4 1094 788C1085.2 783.6 1077.83 780 1077.61 780C1077.4 780 1076.78 780.56 1076.24 781.25C1075.7 781.94 1074.16 784.75 1072.82 787.5ZM1216.66 805.79C1216.19 806.73 1216.19 807.79 1216.66 808.14C1217.12 808.5 1226.5 811.79 1237.5 815.46C1248.5 819.13 1260.32 822.44 1263.76 822.82C1269.32 823.42 1270.02 823.3 1270.01 821.75C1270 820.62 1266.45 817.78 1259.99 813.75C1254.48 810.31 1247.62 806.07 1244.74 804.32C1241.86 802.57 1237.47 799.53 1235 797.57C1232.53 795.6 1229.77 794 1228.87 794C1227.98 794 1225.05 796.27 1222.37 799.04C1219.69 801.81 1217.12 804.85 1216.66 805.79ZM500.5 829.95C487.3 834.33 475.26 838.16 473.75 838.46C472.21 838.76 471 839.66 471 840.5C471 841.81 476.94 842 518.5 842L566 842C566.69 838.51 568.08 832.55 569.52 826.5C570.97 820.45 572.56 813.92 573.05 812C573.55 810.08 573.96 807.49 573.98 806.25C573.99 805.01 573.66 804.03 573.25 804.06C572.84 804.09 561.7 808.14 548.5 813.05C535.3 817.96 513.7 825.56 500.5 829.95ZM1120.45 813.88C1117.18 817.94 1113.61 822.44 1112.53 823.88C1111.45 825.32 1108.4 829.2 1105.76 832.5C1103.12 835.8 1100.19 839.3 1099.23 840.27C1097.57 841.97 1098.9 842.05 1130.25 842.02L1163 842C1175.4 828.83 1178.77 824.44 1178.48 823.75C1178.19 823.06 1170.88 820.09 1162.23 817.14C1153.58 814.19 1142.56 810.25 1137.75 808.39C1132.94 806.52 1128.89 805.01 1128.75 805.02C1128.61 805.02 1128.03 805.36 1127.45 805.77C1126.87 806.17 1123.72 809.82 1120.45 813.88ZM960.5 821.5C960.89 822.66 962.81 821.82 969.04 817.75C973.46 814.86 977.06 811.94 977.04 811.25C977.02 810.56 975.65 809.1 974 808C972.35 806.9 970.44 806.02 969.75 806.04C969.06 806.06 966.59 809.21 964.25 813.04C961.91 816.87 960.22 820.67 960.5 821.5ZM1210.5 819C1211.88 819.55 1214.91 820.28 1217.25 820.63L1221.5 821.26C1216.08 817.47 1213.51 815.83 1212.3 815.17C1210.43 814.15 1209.96 814.26 1209.05 815.99C1208.16 817.69 1208.39 818.15 1210.5 819ZM738.5 825.51C736.3 826.86 734.05 828.18 733.5 828.45C732.95 828.71 729.8 829.93 726.5 831.16C723.2 832.39 719.71 834.2 718.75 835.2C717.79 836.19 717 838.13 717 839.5L717 842L742.5 842.03C741.01 833.04 741.03 832.98 744.75 831.12C746.81 830.09 749.04 828.63 749.69 827.87C750.34 827.12 751.47 824.59 752.2 822.25C752.93 819.91 753.29 818.03 753.01 818.06C752.73 818.09 750.25 819.23 747.5 820.59C744.75 821.95 740.7 824.16 738.5 825.51ZM969.65 838.44L966.8 841.5L1022.5 842.05C1025.98 837.75 1026.99 836.16 1027 835.75C1027 835.34 1024.41 833.84 1021.25 832.42C1018.09 831 1014.38 829.33 1013 828.71C1011.63 828.08 1009.38 826.81 1008 825.89C1006.63 824.96 1002.58 823.22 999 822.02C995.42 820.82 992.05 819.42 991.5 818.9C990.95 818.39 989.97 817.97 989.32 817.98C988.67 817.99 984.62 821.91 980.32 826.69C976.02 831.46 971.22 836.75 969.65 838.44ZM1180.77 841.52C1180.9 841.79 1193.15 842 1208 842C1229.12 842 1234.93 841.73 1234.66 840.75C1234.47 840.06 1226.93 837.36 1217.91 834.73C1208.88 832.11 1200.15 829.73 1198.5 829.44C1195.95 829 1194.38 829.82 1188.02 834.98C1183.91 838.32 1180.65 841.26 1180.77 841.52ZM1039.25 842.04C1042.54 842.01 1043.9 841.62 1043.67 840.75C1043.49 840.06 1041.99 839.36 1040.34 839.2C1038.52 839.02 1036.77 839.53 1035.92 840.49C1034.64 841.93 1034.98 842.08 1039.25 842.04Z" />
</svg>